<svg xmlns="http://www.w3.org/2000/svg" xmlns:xlink="http://www.w3.org/1999/xlink" width="65" height="73" viewBox="0 0 65 73">
  <defs>
    <rect id="rect-1" width="65" height="73" x="0" y="0"/>
    <mask id="mask-2" maskContentUnits="userSpaceOnUse" maskUnits="userSpaceOnUse">
      <rect width="65" height="73" x="0" y="0" fill="black"/>
      <use fill="white" xlink:href="#rect-1"/>
    </mask>
  </defs>
  <g>
    <use fill="none" xlink:href="#rect-1"/>
    <g mask="url(#mask-2)">
      <path fill="rgb(0,102,204)" fill-rule="evenodd" d="M49.37014815 48.86863333c.32307407 0 .77614815.16546667.66251852.43994667-.11266667.27642667-.24122223.74022-.49640741.77136667-.2547037.0292-.75111111-.33482667-.75111111-.65894667 0-.32412.2624074-.55236667.585-.55236667z"/>
      <path fill="rgb(0,102,204)" fill-rule="evenodd" d="M21.28966667 57.76198c.35485185.17909333.7097037.17909333 1.06455555 0l-.26625926-.4234-.6081111-.53728c-.32981482-.17909333-.59607408-.01314-.79877779.49834667l.6085926.46233333z"/>
      <path fill="rgb(111,112,114)" fill-rule="evenodd" d="M39.46222222 70.21188667c-.1011111.17909333-.03803703.35818666.19066667.53728.22822222.18055333.41744444.21802666.5695926.11582666l-.76025927-.65310666z"/>
      <path fill="rgb(255,255,255)" fill-rule="evenodd" d="M63.64221191 32.09226227c.48101807.3586731.6201477 1.229805.41744996 2.6129074.55804443.84534455.4694519 1.79336549-.26675416 2.84067536.27832032.25647736.41793824.57718659.41793824.96068573 0 .38397217-.09436035.68619538-.2845459.90276337-.19116211.2180252-.52722168.48082733-1.00823975.78839874.12664795.74217224.13916016 1.43518067.03805542 2.07466126-.12664795.71881103-.69769287 1.6911621-1.71118164 2.921463.22772217.74264527.12661743 1.42155457-.303833 2.03572083-1.08959962 1.30767823-1.87536622 2.1009369-2.35733033 2.38272095.25375366.51294708.25375366.90909577 0 1.19233704-1.62161255 1.07504272-2.94039917 1.6522293-3.95391846 1.7286377-.83633422.10269164-1.60910034.46087646-2.31832885 1.07699584l-2.20568848 2.68882752c-.15164184.43508148-.39239502.71637726-.72174072.84485626 0 .51343536-.16418457.82781982-.49447632.9417038-.32885742.11631012-.73474121.21218109-1.21621704.28858947-.7097168.5377655-1.38183594 1.00009919-2.01501465 1.38407898.17718506.87016297.46850586 1.48628235.87438965 1.84446717 1.8503418.33288574 3.0415039.40977478 3.57305908.23068237.65914917-.33239746 1.91342163-1.24197388 3.76470947-2.72825623.12664795-.58886718.2657776-1.72814941.41744995-3.41931915 0-.33434296-.13916015-.62828827-.41744995-.88378143-.35531616-.41123963-.36831665-.79521942-.03900146-1.15340424.22869873-.28177643.90039062-.5630722 2.0159607-.84436798.303833-.05158997.41793822.12750244.3418579.53727722l-.0380249.92126465c.07608032.1810379.35437012.29541016.83633423.34650421 1.01397705-.10219574 1.9263916-.11388397 2.73770141-.03746795.45547486.05109405.74676514.1654663.87435914.34455871.303833.30757141.41744995.63510132.3418579.97966004-.07608032.3465042-.06356811.73680877.0380249 1.17237854.07608033.46281433.26049805 1.02589416.55130006 1.6911621.29129028.66722107.62738037 1.17919922 1.00726318 1.53738404-.37988281.89741516-.88641357 1.6911621-1.52050781 2.38223266-4.28326416 3.074749-6.84957886 4.92603684-7.6984253 5.55237961-.84933471.62779236-1.5272522.89059448-2.03378295.78839112-4.10653687-.2817688-7.53997803-.66526795-10.30273438-1.15339661l.60861206.4623413c.93838501.74264527 1.86187744 1.33102418 2.77474976 1.76756287l.72271728.19126892.34283447.34649659c.05004883.33288574-.14013671.66577148-.57104492.99864196l-.83633423.2696228c-.68466186.5888672-1.41989135.87210084-2.2047119.84631348l-.53250123-.19273376-.53155518-1.00009155c-.78579712-.15379334-1.26776123-.34455872-1.44494629-.5752411-.30380249-.30903625-.44345092-.57621764-.41790771-.80690002-2.23071289-2.02355957-3.78878784-3.13801574-4.67614746-3.34436035l-.98849487.57669068c-.3803711.1790924-.82382203.20489501-1.33081055.07688903-1.03952026-.56306457-1.58456421-.78158569-1.63510132-.6535797l-1.33084106.92271422c-.17718506.10269166-.29129029.35818482-.3418274.7679596-.25375366.46232605-.81130981.76942444-1.67315673.92271423l-1.10211182.84437561-1.52340698 1.5393219-.14974976.15184021c-.15167236.61369324-.45596313 1.01177979-.91241455 1.1908722-.48147583.15330505-.98846436.15330505-1.52050781 0l-1.40640259-.84484864-.49447632-.57670593c-.40493774-.12799072-.6842041-.35818481-.83587646-.6910553-.20318604-.74412536-.03851319-1.14172363.49401855-1.19282532.37988281.18151856 1.24172974-.24235534 2.585083-1.26777648l-.03805541-.42095948c-4.68865967.71685791-7.22268677 1.06288147-7.60305786 1.03756714-1.8248291-.79570007-3.73776245-1.79336548-5.7397461-2.99835205-1.69818115-.99815369-2.8821411-1.74225998-3.553833-2.22843552-.67166138-.48618316-1.16998291-.89692688-1.4998169-1.22981262-.7602539-.76844787-1.23162842-1.33151245-1.42227173-1.6911621-.18972778-.35818482-.22677612-.62634278-.12567138-.80738068.76074218-1.1772461 1.2446289-2.176857 1.42181396-2.99591828.0510254-.20488739.0934143-.44919586.0678711-.730484-.20220948-.7679596-.13623047-1.2814026.07897949-1.53738404.21618652-.25598144.60809326-.3839798.93792724-.3839798l3.85183716-.07640838v-1.00691223l.00482178.77671814.46560669-.7679596.34231567.15330505-.57055664 1.15193177c-.07559204.17958069-.24072265.2559967-.49398804.23068237-.58261108-.05158997-1.72369384-.02578735-3.42141723.07640839-.68466187.02579498-.88735962.47449493-.60858154 1.34661102.0505371.20487976.0250244.48617554-.07608033.84436035-.22775268.84436798-.67166137 1.81867981-1.33032226 2.91951752-.20318604.23213958.20269775.89740753 1.21621704 1.99971008.88687134.84436798 2.44543457 1.94715118 4.67614746 3.30348587 3.14263916 1.79336548 5.04351807 2.7798462 5.70266724 2.9589386 2.585083-.30708313 5.20864868-.70469666 7.86932373-1.1908722 1.06454467-.23068237 2.25622558-.49348449 3.57403564-.78840636 1.31781006-.29394532 3.48449707-1.0054474 6.50097656-2.1310997.20269776-.05110169.26626587-.32071686.19018555-.80738831-.15216064-.94850922-.55755615-2.04934693-1.21670532-3.3049469-.6842041.10171509-1.4319458.16692352-2.24273682.1927185-.8117981.02481843-1.48345947.07640076-2.01550293.15329743-1.44442749.17910004-2.83880615.39614868-4.18164062.65359497l-3.26974488.61417389c-2.15463256.30708313-3.82681274.47450256-5.01849365.49980163-1.21670532-.89692687-2.92739868-2.04885864-5.1321106-3.45825195-1.39437866-.9236908-3.003479-1.8454361-4.8283081-2.76815796-.25372314-.23068237-.29129028-.44725036-.11410522-.65164184.22869873-.12945557.73522949-.1927185 1.52053833-.1927185.35482788.02578734.49447631.11436462.41888427.26960754-.07608032.1537857-.22775268.2360382-.45596313.24917602-.22775269.01167297-.42996216.03260803-.60714722.0579071 1.54553223.69107056 2.99240112 1.48677063 4.33572388 2.38272095l-.03417969-1.99824524c-.0255127-.71637726.13336182-1.35829162.4631958-1.92088318.07653809-.43556213-.40396118-.79374694-1.4680481-1.07698822-.14541625-.04915618-.19500732-.01021576-.19500732.10609436v-.14356994c0-.08351135-.01654053-.15543366-.03036499-.21559143-.0243225-.10566712-.0402832-.17507172.05636597-.20732117.3548584-.07737732.71020508.09003449 1.5465393.49980927.55755616.35769653.79827881.75531005.7221985 1.19087219-.3293152.53727722-.46896363 1.20401-.41790772 1.99776459l.11410522 2.305336c1.79977417 1.22981262 3.19317627 2.2026596 4.18167114 2.92097473 1.06454468-.02578736 2.2307129-.12799073 3.49795533-.30708313l.722229-2.07514954c-.6331482-.46232605-1.34332275-1.07650757-2.1286316-1.84446716l-.57006835.07641601c-.55804444 0-.97598267-.30805969-1.25476074-.92272949-.6586609.05110168-1.29275513-.39759827-1.90087891-1.34465027-.96343994-1.12809753-1.76220703-2.20314026-2.39535522-3.22855377-.43093873.12751007-.89990235.05791473-1.40689087-.21169281-.50701905-.26766968-1.0390625-.6842575-1.59658814-1.24732971L4.79074097 47.3478012c-1.8503418-2.27954865-3.15563965-5.124115-3.91638184-8.53175354C.722229 37.7667923.63363647 36.7671814.60858154 35.81915283c-.0255127-.94754028-.0255127-1.53689575 0-1.76708984.10110474-.58935547.35437012-.9606781.76123047-1.1144638.83633423-.28177644 1.98995972 1.22980498 3.45993042 4.53379058.7602539 1.81915283 1.74920654 4.51042175 2.96542359 8.06941223 0-.56306457.05056762-1.1261444.15167236-1.68921661-.55755615-1.05120087-1.00097656-2.19097138-1.33032227-3.42126465-.12710571-.3839798-.28503418-.6394806-.47521972-.76747894-.19018555-.128479-.27252198-.35380555-.24749756-.67256928.02554321-.32071686-.06304932-.78839874-.26577759-1.40257263-.3803711-1.30718231-.68466186-2.24256134-.91238403-2.80612183-.35534668-.12799072-.7352295-.57621002-1.14111328-1.34514618-.40542603-.76844787-.81082154-1.95980834-1.21624756-3.57359313-.32931519-1.6137848-.4309082-3.12537385-.30429077-4.53475953.20269775-2.20265197.50076294-3.9702301.89364624-5.30271911.3928833-1.33152008.84933471-2.48492432 1.36883545-3.45825196.51904296-.97382354.96923828-1.7228012 1.34960937-2.24840164.37988281-.52462768.77276611-1.06920624 1.17819214-1.63276672.4053955-.56356049.81079101-.98598862 1.2166748-1.26825333.43045044-.1537857.70922852-.0642395.83587647.2691269.22821045.82003402.25323486 1.8065071.0760498 2.95893096.3293457-1.0249176.94418335-2.42116546 1.8440857-4.1882515.89941406-1.7675743 1.93218994-3.25336837 3.09832763-4.45786666 1.0645752-.97333145 1.79977417-1.51158524 2.2052002-1.61378479.37988281-.10220337.62734985-.03796005.74099731.19223022.11410523.23068238.10784912.61514664-.0187683 1.15291596-.43093873 1.12712097-.83633424 2.11359405-1.21670533 2.95893097l-.76028442 1.7675743c.63314819-1.30669784 1.47576904-2.5686264 2.52780151-3.78529357 1.05154419-1.21666718 2.23648071-2.24791336 3.55477905-3.09325409 1.29229737-.92223358 2.80078125-1.60113144 4.52398682-2.03669739 1.64764404-.30757522 2.63562012-.23068237 2.9654541.23019028-.02505493.56404877-.26577759 1.10181427-.722229 1.61427689.86184692.02579116 1.38137817.1537857 1.55856323.38446426-.07608032.97381973-.62112427 1.90870666-1.63464356 2.80514526-.96295166.79424286-1.97695922 1.42204285-3.0415039 1.8829155l-1.53305054.82295227c-.98846435.46136093-2.06604004 1.00837326-3.33328247 1.52083206l-.3803711.15330124-.32260131.10609436c-.199646.90624619-2.56893921 5.14339829-2.71676636 5.18848038.57907105 3.5774002-5.24209595 11.19793701-6.55511475 11.52754211-.1208496.03066254-.51422119.46234131-.56237792.52900696-.88735962 1.53738403-1.56530762 2.90005493-1.97070313 3.97607422-.4053955 1.075531-.62112427 1.88290405-.64614868 2.42067718.4053955 2.04935456.7347412 3.2017746.98849487 3.45825196.32980347.30805969.3928833.64142608.19015503.9996109-.07559204.23019409-.0125122.68571472.19018555 1.36315918.20272827.67889404.33273315 1.1981659.5609436 1.55781555.46606445-2.2625122 1.55807495-4.27439117 2.9225769-6.00254822l.30526734-.28274536c.37844849-1.76904297.85125732-3.19545746 1.91534424-3.84710693l.00308227-.00212097c.02386475-.0167389.17092896-.11988068.22079468-.00955964.16082764.35429383.4737854 1.33347321.54647827 2.00117493.59561157-.30513763 1.28170777-.3158493 1.3572998-.23457336.12664796.10268402.12664796.3197403 0 .65310669l-.22821044.46135711c.10110473-.07640075.20895386-.10900879.32305908-.09587097.11413574.01313782.20944214.22386933.28552246.63412476.16708374 1.02881622-.58065796 5.30612945-1.1699829 5.7631073-.06887818.06813049-.08425904.0992813-.14398194.21316528.01589966.60736084-.16513062 2.19631958-.55563355 3.6363678-.34521484 1.2711792-.94995117 2.36471557-1.29083252 2.73361206.01733399.06326294 1.2831421 1.91454315 1.23355103 1.74907684.18728637-.69447326.35195923-.63655853.40637207-.61417389.25372314.05256653.74725342.23700714 1.0260315.5440979.07608031.10219574.10159301.2438202.07608031.4229126l-.19018554 1.1908722c-.15216065.87210082.20269775 1.79531097 1.06454468 2.76815795l1.17819213 1.34514618c.7607422.79521942 1.33081055 1.28382874 1.71118164 1.46243286.17718506-.43508148.45596314-.76357269.83584595-.99425506.3548584-.17909241 2.45892334.55674743 6.3112793 2.19631958l1.86282349 2.05081176c.22775268.10220337.58261108.09490967 1.0640869-.08467102.7862549-.51148986 1.57156373-.61904907 2.35733033-.43946838.83584595-.43507385 1.4189148-.40782166 1.7482605-.15184021.4569397.40977478.88739014.71005249 1.29327393 1.1967163h1.4824829c.83633423-1.45999908 1.48294068-2.04107665 1.9369812-2.27321624 2.61059571-1.30718994 4.34683228-2.31118011 5.2086792-2.5413742.15213013-.02579499.25372315.0116806.30429078.11387634.3548584.33288574.55804443.57719421.60858154.730484.86090088-.53727722 1.3553772-1.03756713 1.48199463-1.4984436.22824097-.6156311.7034607-1.28771972 1.4256897-2.01820373.72268676-.72854615 1.03372192-1.38845825.9321289-1.97732544l-.1526184-1.42350006c.1444397-.22338105.39434814-.59908295.70248413-.8750229.21191406-.18891906.7392578.02685548 1.0317688.14654542.10757446.0440216.18328857.07500458.19985961.06806946.0168457-.04817963 1.29180909-2.07855225 1.49884034-2.4012146-.03964234-.04850006-.0798645-.0863266-.11813355-.12229157-.1295166-.12173462-.23641968-.22221374-.2208252-.64372253-.24154663-.2446518-.4946289-.47772217-.7411499-.70477295-.91583252-.84339905-1.74151611-1.60379791-1.5506897-2.56659699l-.01306152-.02796173c-.12423706-.26609039-.38604736-.82693481-.38513183-1.16291046.00143432-1.1461029 1.18829345-1.1344223 1.71166992-.66186523-.052948-.94316101-1.80218506-3.03193665-1.93795777-4.20723725-.09677124-.84047699.70150757-.99474334 1.30673218-.51003265-.09918213-1.49941254.79013062-3.1136856 1.62164307-2.91415405.29611206.07105255.69573974.21948242.72607422.469635.10830688-.44042968.67599487-.47303771.76361084-.43849181.21618652.08614349.46270752.2671814.58163452.64630127.39529419 1.2648468.62930298 3.09275817.30911255 3.67286682-.15792847.28616333-.41262818.59422302-.4333191.63996887-.1279602.27192688-.09301757.95523834-.08129882 1.18404388l.000885.0170517c.02310181.30368042.08520509.71004486.15600587.65553284.20895385-.16059876.54647827-.40100861.55514526-.40635682.31488037-.2263031 1.0091858.14891053.96246338.57523346.06784058-.2371292.56240845-.18157959.57241821-.1454773l-.000885.00385285c.00097656-.00125122.00125121-.00254058.000885-.00385284.1600647-.70341492.3366394-1.41723633 1.41320801-.89209747.3081665-1.03221894.52868652-2.16664124.65914917-3.40228272.00030518-.0037384.0003357-.01499939.00042725-.03303528.00057983-.129982.0027771-.61159515.10888671-1.16075897-.26779174-.72386932-.89309692-1.5044632-1.18835449-1.8730774-.09924316-.1238861-.16113281-.2011566-.15979004-.21424102-1.08428955-1.67607117-1.98901367-3.3925476-2.53790283-5.18980408-.60089111-.01363372-.8604126-.56307983-1.10595703-.8891449-.45980835-.61027526-.78240967-1.22348022-.89459228-1.33930969-.57440186-.59178161-1.72564698-1.26776123-1.97647095-1.38991546-1.00198364-.21753693-1.1218567-1.4911499-.76940918-1.74469757.14926147-.10804749.4328308-.25306702.51229858-.2438202-.03759765-.0843048-.12121582-.20573425-.22174072-.35175323-.33480835-.48619842-.85736084-1.24503326-.4937439-1.81391907.13046265-.20342254.49349976-.4598999.5777588-.41804504-.38757325-.48812866-.28359986-1.39770508-.0827942-1.9583435.16418457-.45893098.34375-.95825196.38613892-1.0059433-.65481568-.2808075-1.43096924-.72756958-1.84262085-1.18016816-.44393921-.48666381-.70874024-.82343673-.81707764-1.05460357-.12036133-.2185135-.23400879-.52511597-.24990844-.71393967-.63360596.0136261-1.2937317-.0486679-1.89654542-.11825943-.7920227-.15621948-.46606445-.86383438-.34521484-1.0059433.00723267-.07250976.55178833-.52754593.6774292-.54214477l-.58114624-.25403977c-.60906982-.30708694-.93841553-.81906128-.98895264-1.53689193l-1.48297119-.61466218.11410523-.72999954c-1.09005738.38446427-2.0029602.19223404-2.73770142-.57670212-.53204346-.1537857-.73474121-.52559661-.60809326-1.1144638-.55755615.12799072-1.12762451.11533737-1.71118164-.03844834-.78530884-.25598526-1.19024658-.57621383-1.21575928-.9606781-.02502441-.3839798.03805542-.66576004.19018555-.84534072-.58355713-.30708695-.95718384-.70420838-1.1218567-1.1908722-.16464233-.48666763-.0760498-.86480713.2657776-1.13393402.34283447-.26864242.96972656-.4287529 1.8821106-.48034286-.07559205-.66576004.17767333-.9859848.76074218-.9606781.37991333.128479.78482056.24382019 1.21621704.34601974.42999268.10219956.83636475.34601975 1.21624756.73048782.22772217-.38495254.70968628-.44870758 1.44491577-.19272232.88735962.40977478 1.95193482 1.26825333 3.19317627 2.574955.76074219-.5382538 1.26727295-.3333664 1.52102661.61465835l.11456299.80640792c.7097168-.76795959 1.49502563-.69106674 2.35687256.23116684.27923584 0 .62109375.12799454 1.0260315.38446808.2036743-.10268783.41888427-.14113617.64712524-.11534118.60858154.02579498 1.05154419.34553146 1.33032226.96019363.27926636.61514664.45645142 1.2044983.53250122 1.76805878.17767334-.69155121.49401856-.94802475.95046997-.76893235.3288269.38495255.60809327 1.06385422.83630371 2.03718567.40542603.51197434.620636 1.08867264.64663697 1.72864151.86090088-.25550079 1.78631592.35915757 2.77575683 1.84495163.35437012-.43605041.83535767-.19223022 1.44393921.72999955.40542603.71686172.65917969 1.47314071.76074219 2.26689529.63269043-.25598907.98849487.37181091 1.06408691 1.88291168.48147583 1.15291596.7159729 1.90919495.70343018 2.26737976-.01300049.3586731-.08279419.66624451-.20941162.92223358.35482788-.25598907.62109375-.1790924.7982788.23068238.4313965.71734619.62112427 1.30621338.57055665 1.7675705 0 .48666381-.36785889 1.06336974-1.10211182 1.72961425 1.342865-.38446808 1.73526001.05110169 1.17819214 1.30670166-.81130981 1.2551117-1.25473022 2.1262436-1.33035278 2.61291504 0 .79423523-.09533692 1.37726593-.28552246 1.74858856-.19015503.37084198-.61483765.71053314-1.27398682 1.01810456.10110474.25598907.08908081.55042266-.0380249.88330078.73568725-.66575623 1.31781006-.88378144 1.74920654-.6531067.73425293-.58886718 1.3553772-.70420074 1.862854-.34552764zM42.57983398 8.26749039l.07653809-.88378525-.72268677.15330124c-.6842041.23116684-1.36886596.02579117-2.05255127-.61466217-.4569397.07689285-.64712524-.10219956-.57104492-.5377655.17718506-.38446808.12661743-.5888672-.15167236-.61466218l-1.1026001.1153412c-.71017456-.10219956-1.17819214-.30757142-1.40689087-.61465836-.15213013-.25647355-.0505371-.57670212.30477905-.96068192-.68466186-.28226471-1.10931396-.58886719-1.27398681-.92223358-.16467285-.3333664-.06356812-.602005.30380249-.80738068.3673706-.2043991 1.04577637-.2433319 2.03475952-.1148529-.22824097-.28226471-.29226685-.5766983-.19018555-.88378525.02502442-.30708695.6836853-.14064789 1.97647095.49932098l.75976562.46135712c.20318604-.38446426.54504395-.49931717 1.02700806-.34601975.58258057.28178025 1.1281128.62147522 1.63464356 1.01810837.5074768.39712143 1.0765686.96700669 1.71118164 1.71014786.53204345-.3586731.91238403-.28178024 1.14013672.23019028l.11364746.92223358c-.5570984-.5377655-1.24127198-.57621002-2.05303955-.1148529l-.53155518-.23067856c-.73474121-.89644242-1.17868042-1.57582856-1.33129883-2.03718567-.15167236-.5888672-.22775268-.63996888-.22775268-.15330124.0255127.5124588.3293457 1.16605377.91241455 1.95980835-1.11462403-.35818863-1.9331665-.81954956-2.45217896-1.38359452-.51953125-.56356048-.91915893-1.03708648-1.19744873-1.42155456-.2782898-.46087265-.39242554-.46087265-.3418579 0 .30380248.56404877.72271728 1.08916092 1.25378417 1.57582855-.40493774-.17958069-.78579712-.3586731-1.14016724-.53825378-.88735961-.3839798-1.62210083-.5888672-2.2046814-.61466217-.27926635 0-.29177856.05110168-.03805541.15330124.98898315.25647354 1.70443725.49348068 2.14743042.71102142.44439697.2180252.74194336.41609955.894104.59568024-.71020508.3075714-1.44540405.4482193-2.20568847.4229126-.48147583-.02579499-.69619751-.01265336-.64614869.03844451.05056763.05110169.20272828.10268784.45596314.15330124.91241455.10268784 1.8373413.00048828 2.77526855-.30708694.68466187.3586731 1.4829712.70420837 2.3958435 1.03757476-.5580139.12799073-1.10305785.38446427-1.6351013.76893235-.20269776.25598526-.10159303.2686386.303833.03844833.40588379-.30757522 1.01348877-.49980926 1.82479858-.57670212l.64663697.26863861c-.05007935.6920433.11410522 1.39624787.49398803 2.11408234l-.41790771.15330124-1.29229737-.42291641zm-22.5632019-3.30495072c1.38134766-1.15291214 3.03475952-2.04935074 4.96118164-2.69029236.93792725-.25598526 1.74871826-.37132644 2.43292236-.34553146.32980347.07689285.418396.26863861.26626587.57621002l-.83633423 1.11446762c-.73522949.10268784-1.74249267.52560044-3.02227783 1.26825333-1.28024292.74314117-2.65536499 1.72961426-4.12484741 2.95893478l-.53204346.34601975c-.27877807-.20537186-.7857666-.11534119-1.5205078.26863861 2.33181762-1.97245789 4.35934447-3.47139359 6.08303832-4.49582672 1.1151123-.56356049 1.76126099-.9606781 1.93893433-1.19136048-.55804444.15378953-1.34335327.50662232-2.35736084 1.05704117-1.01397705.55041886-2.68664551 1.69700623-5.01846314 3.43878556l-2.2432251 2.0367012c1.26678467-1.74177933 2.59133912-3.18912506 3.97271729-4.34204102zm7.79949951.69155121c.58309937-.58935165.82382202-1.12711716.82382202-1.61378479-.53250122-.20488739-1.30673217-.20488739-2.219635-.00048828-1.85031129.74362946-4.22161866 2.3953743-7.11099244 4.95718765l-.04092407.46136093c1.444458-.97333526 2.9206543-1.95980835 4.4416809-2.95893478.91192628-.56356049 1.73526002-1.03757095 2.49597169-1.42203903.6842041-.15330124.9114685-.05110169.32836914.3075714C24.32925415 6.61525727 21.90740967 8.20373918 19.5 10.15040589v.2301941c1.92593384-.94802857 3.70788574-1.76708985 5.03869629-2.45912934 1.33081055-.6915512 2.39007568-1.44734573 3.2774353-2.26737976zM8.36383057 18.64225006c1.01351928-1.66488647 2.23068237-4.02181244 3.65008545-7.07028961.43093872-.89692688 1.06408691-1.90870667 1.90090942-3.03534317.25326538-.58983994.11410522-.57718659-.41842651.03844833-1.24172974 1.56268692-2.68664551 4.03495407-4.33380127 7.41631317l.722229-1.84446716c.12710571-.40977478.53250122-1.33833313 1.21670532-2.78616714.68417359-1.44734574 1.35583496-2.5939331 2.01498413-3.43927384.65914917-.84533691 1.1151123-1.39624405 1.36886597-1.65223312.91238403-.79423905 1.44442749-1.1655655 1.59658813-1.11495209.12661744.10268784.16467286.2691269.11410523.49932098l-1.862854 4.84233094c-1.21670533 2.38223648-2.81329346 4.86715317-4.79025269 7.45427322-.83633423.92272186-1.35586548 1.51158905-1.55905151 1.76805878-.20220948.25598907-.36688233.49932098-.49398804.73000336l.15216064-.6531067.72174073-1.15291595zM45.1282959 12.1481743c.0809021.22045898.36642456.25550079 1.78631592.2297058.0760498-.1790924.22097778-.2744789.39770507-.32558059-.37652587-.2808075-.69720459-.58983994-.93746948-.93975067-.17718506-.40929032-.31054687-1.0896492-.25997925-1.49942017-.40542602.12799072-.76074218.1537857-1.0645752.07689285-.30380248-.02579498-.34182738-.09003448-.11361693-.19223403.65914917.05109787 1.26678466-.154274 1.82479858-.61514664-.3288269-.46136093-.70968628-.90958023-1.140625-1.34514618-.43139649-.43508148-.30477905-.47304154.37991333-.1148529.35482788.25647354.65960693.56355667.91287231.92222976-.07608032-.58935165-.07608032-1.0891571 0-1.49893188.12661744-.64045334.55853272-.9606781 1.29229737-.9606781-.68371582-.38446808-1.26678467-.10268784-1.74777222.84533691-1.09103394-.61465836-1.77474976-.61465836-2.05401611 0 .02505493.7679634.18392944 1.24197388.475708 1.42155457.29177857.1790924.28457642.44870758-.01925659.80689239l-.68466186.2691269c.03997803 1.03562926.80117798 1.48822784 1.62597656 1.86928939l-.25665283.43605042c-.49975586.28859329-.46990967.4443283-.41696167.61466217zm2.58410644.96116638c-.0255127-.30757523.24072266-.48034287.79827881-.51878739.5570984-.03844833.64614868-.1985588.26626587-.48033905-.7352295-.25647354-1.34283447-.69203949-1.82479858-1.30670166-.3293457-.43556595-.3293457-.74265289 0-.92223358l.57055664-.15329742.26623535-.34602356-.3418274-1.34514618c-.10159301-.69155121.08859254-1.17821884.56958009-1.45999909.68466186-.10219955 1.35632324.10268784 2.01498413.61514664.0255432-.3586731.26049804-.46720123.70440673-.32655334.44299317.14113235.85464478 1.09500122 1.2345276 2.86306l.60861205.23019409c.20269776-.48666764.3673706-.72999955.49447632-.72999955.20269776 0 .4053955.42242432.60809326 1.26825333.50747681.46087265.74822998 1.21666718.72271729 2.26689148-.3293457.43556595-.5074768.97333527-.53155518 1.61427307l-.30477905-.69203949c-.17718506-.76844406-.25326538-1.57534027-.22821045-2.420681-.02554321-.35818481-.06356811-.35818481-.11364746 0-.07608032.74314118-.08908081 1.3704567-.0380249 1.8829155-.68466187-.89692688-1.41989136-1.70333481-2.20568848-2.42116547-.15164185-.56356048-.20269775-1.20401382-.15164185-1.92136001-.07608032-.61466217-.13916015-.75531006-.19018554-.42291642-.05056763.76893616-.02554321 1.48579407.07559204 2.1520424-.58309937-.5888672-1.26678467-1.44734574-2.05303955-2.574955-.20224-.3581848-.29083252-.43507766-.26577759-.23019409.48098755.92223359.98846436 1.69068146 1.52001953 2.3058281.53253174.61466217.96298218 1.10132599 1.29327393 1.45999908-.65914917-.20537185-1.22970581-.33969116-1.71072388-.4034462-.48242187-.0642395-.92538452-.19904708-1.33081055-.40393447-.38037109-.07689286-.36782837.01265716.03707886.26864242.22918701.1537857.69189453.29491806 1.38812256.4229126.69717407.128479 1.34957886.34601974 1.95819092.65359497.32931518.20439911.77276611.72999954 1.33032226 1.57533646l.45645142 1.03757476c-.71020508-.3839798-1.4954834-.65310668-2.35733032-.80689239-.86090088-.1537857-1.36837769-.2944336-1.52005005-.4229126-.65914917-.28178024-.7352295-.25598907-.22821045.07737732.15164184.15330124.69042969.32606888 1.61535644.51830292.92541504.19223022 1.81808472.5572319 2.67993164 1.09500122l.07559205.2301941c-.17718506.20536803-.2402649.4871521-.19018555.8453369l.26626587.76893616c-.22824097-.28227234-.54455567-.15330505-.95043946.38446045.15164185-.3333664.11361695-.64044952-.11413574-.92223358-.35437011-.5377655-1.21621704-1.1144638-2.58554077-1.72912216l-.22775268.42290878c-1.1151123-.35915756-1.8117981-1.0249176-2.09057618-1.99824905zM18.51489258 8.9590454c-.15213013-.05158615-.4309082.03796005-.83633423.2691269-1.34332275 1.05022811-2.53500366 2.5102272-3.57354736 4.38146209l-2.19699097 4.15029144-2.28414917 4.08751679-.20800781.5956726c1.70443725-2.64259338 2.73770141-4.24761962 3.16864013-4.91387176 1.5715332-2.6893158 2.82580567-4.6754036 3.76373291-5.9558258.93743897-1.28139115 1.51425171-2.017231 1.72994996-2.20995331.21524047-.19223023.20849609-.09635926-.0192566.28810882-1.36883545 2.04935455-2.37609863 3.58673096-3.0227356 4.6111679-.64614867 1.02491761-1.19744872 1.93450166-1.65390014 2.7282486.88739014-.79423522 1.8248291-1.25559997 2.81332398-1.3835907l1.40640258-2.7671852c.60858155-1.43420792.93838501-2.37541962.98895264-2.8241272.05056763-.44870758.02502441-.80056763-.07608032-1.05704117zM4.77148438 24.19512177c-.44345093 3.36870574-.56430054 5.57865905-.3611145 6.62888336.45596313-2.17783356.87435912-3.94491577 1.25424194-5.30369568.20269775-1.1533966.79782104-3.3944931 1.78677368-6.72475434.3803711-1.17919158.62738037-2.24840545.7414856-3.20908355.11410522-.9606781.12039184-1.95347977.01925659-2.9779129-.10159302-.25598527-.36782837-.14064408-.7987671.34601974-1.9519348 2.3058281-3.24423217 4.73916244-3.87783813 7.3009758-.43093872 1.84495544-.70922851 3.74100494-.83633423 5.68767548-.05056762 1.63957977.05679322 3.04847717.32305908 4.22669982.26626587 1.1791916.55130005 2.13305665.85559082 2.86306.30285645.72659302.80117798 1.24781037 1.48007203 1.55587006-.02511597-.14907837.08688354-.80529022.11532592-.84319306-.203125.12644196-.39245605.13854218-.56887817.03678894-.32931519-.12799072-.62063599-.59568023-.87435913-1.40257263-.25326538-.80690002-.3548584-2.11991882-.303833-3.93859863.2527771-5.20051575 1.15267943-9.13278198 2.69869994-11.79728699.3548584-.5124588.36785889-.39662933.03805542.34602356Q5.436615 19.14205933 4.77148438 24.19512177zm51.05773925 6.24441528c.49349976.82003784.87435913 1.42836761 1.14013672 1.82549286.26577759.39711761.65289307.9543457 1.15893555 1.67072296l.95043945-.03844452.15167236-1.84495544c.68466187-.2301941 1.03903199-.5888672 1.06454468-1.07553101.0255127-1.92136383-.0890808-3.24022675-.3418579-3.95806122-.88735963-1.15291595-1.73620606-2.02404785-2.54751588-2.61340332-.35482788-.35818481-.32931518-.4092865.07559204-.15329742.93792725.61466217 1.69818116 1.21715545 2.28173829 1.80601501l-.5710144-2.34378052c-.73474122-.64045715-1.3808899-1.38359832-1.93844605-2.22893524-.27877808-.4092865-.26626587-.46038818.03753662-.15329742.68469238.8458252 1.26727295 1.4088974 1.74923706 1.6911621-.27926636-.84582519-.57006836-1.71695709-.87438965-2.61339568-.93789673-1.101326-1.74871826-1.87026215-2.43338013-2.30583191-.48101806-.35818482-.48101806-.4482193 0-.26863861.38082886.10220337 1.05203247.5630722 2.0159607 1.38311004-.33029175-.8711319-.65914917-1.71647644-.98944092-2.53650665-.40542603-.56356049-.88641358-1.08867645-1.44445801-1.57534027-.20220947-.23068237-.13916016-.24284744.19018555-.03844452.3293457.20536804.68466186.52510834 1.06454467.9606781l-.49349975-1.6137886c-.05056763-.40977478.01300049-.40977478.19018555 0l.53204345 1.22932052.83584595 2.15203858c.12661743-.38446808.19064331-.8458252.19064331-1.3835907.10159302-.66576386.16467285-.63996887.19018555.07688904.02554321.71734619-.02502442 1.34514617-.15164185 1.8829193.37988281.94802094.73425293 1.960289 1.06454468 3.03582001.40493774-.53825378.68371582-1.2935562.83633423-2.26737976.12615967-.6915512.17718506-.62779998.15167236.19223786-.10159302.97381592-.34283447 1.78070831-.72271728 2.42116546.3293457 1.35780335.63461303 2.51071167.91290283 3.45825196.2782898-.17909241.55755615-.65261841.83633423-1.42155457.25326538-.3839798.290802-.3197403.11361694.19223786-.35437012 1.0249176-.63363647 1.6269226-.83633423 1.80601501.22775269.99961853.38616944 1.90189362.47521973 2.7092743.08813476.80689239.10784912 1.58167266.05731201 2.3248062.17718506-.10268402.2782898-.44869995.30380249-1.03756713 0-.28227234.0828247-.65359497.24749756-1.11495972.16464233-.46135712.4246521-1.0249176.77902222-1.69067383.3293457-.61466217.31634521-.89644623-.0380249-.84534454l-.6842041.19223785c-.22821046 0-.34231568-.1148529-.34231568-.34553528.05102539-.46087646.24746704-.85799408.58981323-1.19136047.34136963-.33287811.51278687-.63996887.51278687-.92223358.05102539-.2301941-.08859253-.70420837-.41793824-1.42155457-.50698852.1537857-.84307861.34601593-1.00775146.5766983-.16467285.23068238-.25372315.23700715-.26623535.01947022-.01254273-.21851349.1015625-.5324173.34182739-.9417038.24075317-.41025543.31729126-.85214996.22824097-1.32616424-.08859253-.47401428-.33511353-1.13344574-.74099732-1.97879028.2782898-1.2044983-.0510559-1.55003357-.98849487-1.03756714.10110473-.99913025-.07608032-1.85761261-.53155518-2.5749588-.38085937-.79375077-.77276611-.9606781-1.17913818-.49931717-.83633423-1.17870713-1.444458-1.8576088-1.8248291-2.0367012-.37988282-.17909241-.60809326-.15378571-.6836853.07689285-.07608033.23068237-.20367432.52511596-.38085938.88378906-.17718506.3333664-.17718506.89692688 0 1.69116592-.55706787.15378571-.78579712.43508149-.68371582.84533692l.37988281 1.19136047c.30383301.38446808.50027466.7815857.58935547 1.19136048.08859253.40977478.04476929.83268737-.13339233 1.26825714.78579712-.46136475 1.31829834-.48667145 1.59707641-.07689667.10113526.38446808.12615967.71685791.07559204.99913025-.0505371.2822647-.06304931.82003021-.03753662 1.61378479-.0255127.1790924.18969727.3392105.64660645.48033905.45550537.14064789.594635.39079285.41744995.74946594-.10110474.12799072-.32305908.07008362-.664917-.17324829-.3418579-.24333954-.57681274-.2496643-.70343017-.01947021-.33032226.46087646-.07559204.9859848.76071167 1.57582855 1.62164307 1.075531 2.29330444 1.69068146 2.01501465 1.84397888-.48196411.10268402-.64614868.37132263-.49447632.8068924.07608032.256958.38085938.53825378.91241455.84582519.5074768.3586731.69766236.87065124.5710144 1.53689575-.0760498.7173462-.34280395 1.1397705-.7982788 1.26824951-.15216065-.71734619-.21569824-1.18502807-.19018555-1.40257263.0255127-.2180252-.1401062-.40977478-.49447632-.57621002-.35437011-.16644287-.82382202-1.3256836-1.4064331-3.47772217l-.79827881-.03844452c.7347412 2.51071167 1.20370483 3.79161835 1.40640259 3.84272003.20318603.05158234.40588379.32071686.60858154.80738068.05056763.38446045.05633545.92223358.0192871 1.6137848-.0385437.69203948.19595338 1.0249176.70343018.99913024l-.34280395.4229126c-.27877808-.07640839-.50653076-.24285126-.68371582-.49932099-.22918701-.35819244-.34906006-.72367096-.36160278-1.09500122-.01251221-.37181854-.0192566-.7557907-.0192566-1.15340423 0-.39662934-.19018554-.51197052-.57006836-.34552765-.38037109.16643524-.62738037.19223022-.74197387.07688904-.11410523-.11533356-.18295288-.25646973-.20846558-.4229126-.0255127-.16643524.07559204-.51878357.3038025-1.05654907.0510559-.38446808.0317993-.65408326-.05633546-.80738068-.08953857-.15330505-.32354736-.2043991-.70391845-.15330505-.37988282.05110168-.50698853-.32070923-.37988282-1.11446381l.45547486-1.65271759c.15167236-.84534454-.17718506-.9606781-.98846436-.34602356.12661743-.6915512.36831665-1.1908722.72268677-1.4984436.35437012-.30709076.50027466-.67890168.43719482-1.11447144-.06356811-.43556213-.06356811-.85166168 0-1.24878693.06307984-.39662933.00576783-.65943145-.17141723-.78742218-.53204346-.05110168-1.22872925.49932099-2.09057618 1.65222931l.418396-1.07601928c.43045044-1.30621338.51904297-2.20314026.26577759-2.68980408-.2527771-.33287811-.51953125-.56356049-.79830933-.6915512-.20269775.07688903-.46896362.34601592-.7982788.80689239-.3293457.3839798-.53204346.46135711-.6076355.23067474l.18969726-1.19135284c-.02502441-.51197815-.23495483-.8638382-.62689209-1.0565567-.39382934-.19174958-.83102417-.42826844-1.31201172-.71053315-.07608032.30757141-.1911621.61466217-.34283447.92223358-.25326538.46135712-.3673706.9353714-.34185791 1.42204285-.10159302.28177643.01254272.6784134.34185791 1.1908722-.88735962.00048827-1.12762451.42291259-.72174072 1.2682495l.303833.46087647c.20220948.25646973.37988282.602005.53250123 1.03757477-.53250122-.05110169-.82382203.0642395-.87435913.34601593-.02600098.41026306.11410522.67890167.41790771.8068924 1.52005005.66625213 2.4704895 1.35780334 2.85134888 2.0756378.45596313.84533692.82382202 1.26776124 1.1026001 1.26776124l-.7607422-2.03669739c-.3293457-.5377655-1.17819213-1.08867645-2.54656982-1.6522293-.40588379-.1795807-.40588379-.23068238 0-.15379334 1.08959961.43605804 1.862854.81954956 2.31832886 1.15291595-.2527771-.58935547-.53204346-1.24246216-.83633423-1.95980835-.37939453-.43556213-.93792724-.8711319-1.67218017-1.30669403-.33029175-.25647735-.33029175-.2944336 0-.11534118.60812378.28128814 1.15316772.63996124 1.63464355 1.075531-.35437012-.94802856-.63412476-2.06249237-.83633423-3.34339905l-.15216064-.4229126.26626587.07688904c.33029174 1.02443695.67214965 2.26737976 1.02651977 3.72737885.1781311-.66575623.46896363-1.38310242.87435913-2.1515503.48196411-.76893615.55804444-.7947235.22869873-.07689666-.63409423 1.35731506-.93792724 2.28003693-.91238403 2.76670074l1.17816162 2.65135956c.22775269-1.0502243.722229-2.08828735 1.48202515-3.11271667.30477905-.3839798.32980346-.34553528.07653808.11582946-.8368225 1.35779572-1.2932434 2.47177887-1.36883545 3.34242249l.76025391 2.19049072c.12661743-.51197815.34185791-1.03757477.64663696-1.57534027.12661744-.17958069.13912964-.12799835.0380249.1537857-.1020813.28177644-.229187.69155122-.38085937 1.229805-.15213013.5377655-.11410522 1.06288147.11410523 1.57534027.22872924.51197052.5903015 1.17773438 1.08383178 1.99776459zM5.53704834 34.51342773v-.61514282c.96295166-1.05023193.849823-2.04935455 1.20419312-2.99738312l1.33514404-3.45825195 1.550354-3.6504898c.83633423-1.63957978 2.01693726-3.50935364 3.51242066-5.61029053.88690185-1.04974366 1.68035888-1.6137848 2.3640747-1.69068146.17816162.25646973.18151856.7815857.00384522 1.57534027-.17718506.79424286-.4800415 1.6269226-.9109497 2.49757385-.02890016.01070404-.0640564.02627564-.02505494.04769135-1.63845825 3.04994201-3.22686768 5.2623291-4.76474 6.63861847l2.62216187-4.30407715 1.25186158-2.30534363c.48147583-.8711319.56427002-1.1787033.25997924-.92222595-2.55953979 3.89381409-4.10510253 6.34028625-4.61209106 7.3394165-.50701904.99913025-1.02557373 1.93401337-1.50656128 2.80514527-.48196411.8711319-.96633911 1.55003357-1.11801147 2.03669738-.15167237.48667145-.20367432 1.35780335-1.16662598 2.61340332zm1.6100769-12.29660797c-.303833.94754029-.54455566 1.9977646-.722229 3.15068055l1.02651978-2.76621247-.30429078-.38446808zm1.02697754 3.49669648c.2782898-.79423523.6842041-1.69067383 1.21670533-2.68980408l-.72268677.1537857-.79830933 2.49757386.30429077.03844452zm-1.59658813 3.84223175l.26577759-1.11446381.22821045-1.1144638.60812377-.11582947-.76074218 2.07563018-.53204346 1.80553437.19067383-1.53640747zm-1.5970459 3.45825958l-.15167236-.30708313c-.15167237-.23068237.11361694-1.72961426.7982788-4.496315-.25372314 2.04984283-.46896362 3.65097046-.64660644 4.80339813zm8.70562744-.57572937c-.48147583.12799072-.98846435 1.2551117-1.52050781 3.38136291-.37988281 1.69116211-.60812378 3.2660141-.68466187 4.72698975-.05056762 1.97245789.10159302 3.85440063.4564209 5.64776611l.49401856.57718659.07608032-2.99786377.0380249-2.18951416c.07608032-3.33074951.31680298-6.05851746.72271729-8.18524933.15213012-.28177643.17718506-.16692352.0760498.34553528-.17764282 2.10045623-.28503418 3.97704315-.32305908 5.62976074-.03805542 1.65174866-.07608032 2.97742462-.11410523 3.9775238-.03756713.99815369-.05682373 2.29171753-.05682373 3.88019562l.49398804-1.07456207c.45645142-.71831513.79830933-2.10044861 1.02651978-4.14980316.17718506-1.61476136.17718506-3.42662049 0-5.43849945-.17718506-2.01091004-.40539551-3.38768769-.68466187-4.13082886zm49.53771973 6.58995819c.15167236-.1674118.20898437-.37911224.17092895-.63510132-.0380249-.25598907-.33605957-.43410492-.894104-.53825378.60809326-.3839798 1.01351929-1.0112915 1.2171936-1.8824234-.02554321-.3839798-.27975464-.5766983-.76074218-.5766983.22821044-.46087647.35437011-.87697602.3798828-1.24830628.0255127-.37181091-.07608031-.74897766-.303833-1.13344574-.43041992-.30757141-.95043945-.21704865-1.559021.26961517-.43045044-.20488739-.93792724-.0116806-1.52005005.57718659-.32980346 1.358284-.59606933 2.65379333-.79876708 3.88311004.32980346.1795807.77374267-.16351318 1.33081054-1.0346527-.15213012-.25598145-.26626587-.67256928-.3418579-1.26192475.05056762-.46135712.12664794-.43556213.22775268.05110168.07608032.40977478.19018554.71636963.34280395.87016297.32885742-.69155884.70922852-1.29599762 1.140625-1.9106598.27832031-.35867309.3548584-.3095169.22775269.02433778-.50653076.74265289-.87435913 1.53105163-1.10211182 2.5043869h.07559204c.22775269 0 .54504395-.39128113.95092774-.4681778l.00247192-.0003357c-.30465698.13435365-.53399658.27380372-.68713379.40670777.43139649.56404114.63409424 1.15777588.60858154 1.77194977l.41793824.77136993c.4309082-.12751007.722229-.27448272.87435913-.43994903zM50.1838684 43.96595c.70874023.58886719 1.13339233.94219208 1.27304077 1.0565567.13912964.11582947.22195435.29492188.24795532.54068756.02502442.24235535.12661743.41609955.3038025.51878357.30477904-.3328781.57006835-.65359497.79830932-.9606781-.0255127-.12799835-.10110474-.28178405-.22824097-.46233368-.12661743-.1790924-.48773193-.54457855-1.08380127-1.09402465-.59512329-.55139923-1.04483032-1.03222657-1.34863281-1.44199372-.17861939-.2297058-.127594-.2555008.15167236-.07640838.32885742.3839798.71548462.74167633 1.15893555 1.07650756.4439087.33238984.88110352.73048401 1.31155395 1.1908722-.07559204-1.12809754-.21524047-2.29317475-.41744995-3.49816132-.10110473-.74216461-.03805542-.7543335.19018555-.03747558.2782898 1.04925537.44296265 1.779747.49447632 2.190979.15167236-.23213959.2845459-.46233368.3991394-.69301605.1126709-.22970581.246521-.49980927.39819336-.8068924.27926636-.51197052.31729126-.46087646.1145935.15329743-.0765686.25598907-.17141723.54458618-.28552245.8652954-.1145935.32070924-.24121094.6083374-.3803711.86480714-.13912964.25646972-.13241577.7051773.0192566 1.3446579.43093872-.5888672 1.14016723-1.33248902 2.12863159-2.22844697.17816162-1.48627472.12710571-2.22844696-.15167237-2.22844696-.27877807 0-.46942138.27448273-.57055664.82587433-.10159301.55091095-.16464233.47937012-.19018554-.21170044-.0255127-.69106293-.12084961-1.06336212-.28552246-1.1144638-.16464234-.05110169-.35482789.01898193-.57006836.21170044-.21618653.19126129-.39962769.2939453-.55130005.3075714-.1531067.01216889-.25421143-.64678192-.30477906-1.97927093 0-.33239746.10113526-.61417389.30477906-.84534454.20272827-.23067475.28457641-.68522644.246521-1.36412812-.03753663-.67938232-.08184815-1.14658355-.1319275-1.40257263-.05102539-.25646972-.1338501-.49931335-.24746704-.730484-.11410522-.2301941-.22244262-.38349152-.32354736-.46087647-.10159302-.07640076-.22824097.00682068-.37991333.25015259-.15213013.24284363-.26672363.27496338-.34280396.09587097-.07559204-.1790924-.24026489-.34602356-.49353027-.49932098-.25323486-.15378571-.50024414-.04525757-.74099731.32655334-.24121094.37133026-.47521973 1.10813904-.70391846 2.20946503.50701904-.5888672.89941406-.87064362 1.17913818-.84533692.27832031.02579499.42999268.13432312.45550537.32655335.0255127.19223022.09579468.46135711.20944214.8068924.1145935.34602355.17767334.85214996.19018555 1.5184021.0125122.66527557.0380249 1.06969451.07608032 1.20985412.03753662.14161682.0255127.28128814-.03805542.4229126-.0635376.1401596-.10061645.2491684-.32836914.32606506.19503784.02435303.19482422.06800842.19454956.12771606l-.00003052.00708771c0 .06472778-.06933593.33288574-.20846557.80690003-.13916016.47400665-.22198487.77428436-.24749756.90227508-.0255127.1537857-.0125122.3839798.03805542.69301605-.12713623-.20488739-.19018555-.411232-.19018555-.61611938.17764282-.99864197.24023438-1.57534027.19018555-1.72864533l-.15167236-.15329742.15167236-.1537857c.10110474-.74362946.08859253-1.46048737-.03805542-2.15252686-.12615967-.69155121-.29129028-1.1850357-.49447632-1.4794693-.20220947-.2944336-.62063599-.09587097-1.25427246.59568024-.32931519-.28177643-.57055664-.38446808-.72219849-.30757142-.15216064.07689667-.08859253.41026307.19064331.99913025.3043213.43507386.62063599.9606781.95092774 1.574852.17718506.38592529.32885742.7694168.45550537 1.1533966.12661743.3839798.12661743.79375458 0 1.23029327-.7352295-.56452942-1.20370483-.69934082-1.4064331-.40441894-.20318604.29492187-.23446656.59519195-.09533692.90228271q.20947266.46135712.47525024.80738068c-.22775268.46232605-.02505493.9743042.60906983 1.53688812zm-29.88269043 14.8710785l2.85134888 1.73010253 1.6736145-.30903625c-.48147583-.30659485-1.0515442-.71636963-1.71069336-1.22834015-.15216065-.4092865-.3423462-.6925354-.57055664-.84631348l-.45596314.11631012.18969727.92125702-.722229-.15329742c.0255432-.33287812-.22146607-.67208863-.74145508-1.01713562-.51953125-.34601593-1.17819214-.7952118-1.97698975-1.34612275-.7982788-.54992675-1.55853271-1.2293167-2.28076172-2.0362091-.72271728-.8068924-1.12185669-1.3393097-1.19793701-1.59529114-.12661743-.4092865-.27252197-.64678192-.4371643-.7095642-.16467286-.06520844-.23498536-.27690888-.20898438-.63510133l.07608032-.46038055.22775269-1.49845123-.34185791-.19271851-.22824097.73000336c-.0760498.3839798-.33605957.2116928-.7795105-.51830292-.44345093-.730484-1.20947266-1.8006668-2.29956055-3.2100525l-1.21670532-1.49796294-.11410522.4229126c.60812378.89595794 1.1213684 1.70333862 1.53930664 2.42165374.41790771.71686554.76651 1.33103943 1.04528808 1.84446717.27877808.51197815.74725342 1.24246215 1.4064026 2.18951416l.7987976 1.61378479 1.40640259 1.34466552.0380249.88378907c-.27877808-.58838654-.53250122-.97236634-.76074219-1.15145874-.22772217-.17909241-.418396-.2048874-.57006836-.07688904-.48147583.48617553-1.10211181.16497803-1.862854-.96068573-.3803711-.51391602-.79782105-1.19330597-1.25473023-2.03767395-.10159301-.1537857.10159302-.48617554.60858155-1.00009918l-.30429077-.34455872-.418396.34455872-1.71072388-2.4965973.22824097-.3465042-.22824097-.34602357-.26626587.19271851-.4564209-.8068924-.15167236.4229126.22772217.53728485-.3038025.15378571c-.25372314.0253067-.26626586-.43556976-.0380249-1.38407898.43090821-1.30524445 1.11511231-3.02220154 2.05303956-5.14796448 0-.5650177.0635376-1.25608825.19018554-2.07514953-1.03952026 1.86977386-1.8373413 3.75171661-2.39538574 5.64777374-.2782898 1.1280899-.44345093 1.92184448-.49398803 2.38223267-.02407837.17422485-.02746583.32606506-.01107789.45600128.00769043.06472778.03466797.11096191.052948.1654663.01782227.05256653.02792359.11388398.05584717.15670777.03082275.04817963.07995606.07543945.12280273.1095047.0361023.0291977.06500245.06667328.10977173.08564758.04766846.02043915.11169434.0253067.16900635.0355301.0510254.00827026.09146118.02871703.14971924.03066253.00048828 0 .00097656-.01022339.00241089-.01022339.01190185 0 .02185058.00223541.03186035.00447845.01187134.00266266.0237732.00533295.03894043.0042801.16369629-.04623414.30621338-.03552247.43234253.02043914l1.39053345 2.51363373c-.28842164.27935028-.72705079.2029419-1.32839966-.22727203-.45645142-.33433533-.91290283-.96213532-1.36886597-1.88388825-.30429077-.61417389-.56381226-1.21666717-.7795105-1.80504608-.21524048-.5903244-.43045044-1.2818756-.64614868-2.0751419-.21569824-.79521943-.79205322-2.46788788-1.72998047-5.01509858-.93789673-2.54916382-1.67892456-4.18923187-2.22393799-4.9192276-.54455566-.73000335-.89364624-1.09500122-1.0453186-1.09500122-.22821045-.05110168-.40588379.1148529-.53250122.49932099-.05056763.12896728-.06307983.74995422-.03805542 1.86392974.02554321 1.11398316.1020813 1.94082642.22872925 2.4790802.2782898 1.51158905.83633423 3.14971161 1.67266845 4.91777039.83630372 1.79336548 2.1921692 3.71472168 4.06802369 5.76407623-.81082154-1.43323517-1.63510132-3.02220154-2.47097779-4.76397705-.96343994-2.15155792-1.6225891-3.7848053-1.97695923-4.89878845-.35482788-1.1144638-.54501342-1.83278656-.57055664-2.15301514-.02502441-.3197403.02554322-.31341552.15264893.0199585.12661743.33287811.3928833 1.1261444.7982788 2.38223267.55755616 1.51158142 1.60958863 3.75219726 3.15515138 6.72427368 1.16567993 2.30582428 1.92642211 3.62420654 2.28128051 3.95903015.57052613.61271667 1.13916016.9451065 1.63510132 1.01177978.29129028.0428238.55755615-.01216888.79782105-.1674118l.418396.30757141 1.17819213 2.03718567 1.25473023 1.53591919c.70922851.71783447 1.40640258.87162018 2.09060669.46233368.1526184.4092865.36157226.56307983.62783813.46038818.26626587-.10220337.47521973-.06472778.62738037.11436463l.49398804.65359497 2.6231079 1.76805877zm-5.1321106-24.82340241c.32931519-.07689667.39239502.07688904.19018555.46086883l-.722229 1.0760193c-.05056763-.43556214-.11410523-.8068924-.19018555-1.1149521.25375366-.17860412.49398804-.31925201.722229-.42193603zm43.04013062.05352783c.10177612-.03427887.2890625-.02648926.50146484-.01765442.10369873.00432587.2131958.00889588.32138062.00889588-.35437012 1.9466629-.76364136 4.07972717-1.09295655 5.41123962l-.53253173-.30708313c.4569397-1.84446716.70199585-3.91669464.80264282-5.09539795zm-43.23031616 6.32569122c.43045044-1.71647644.6842041-3.15116882.7602539-4.30407714.05105591-.79473114-.11410522-.99913025-.49447632-.61563874l-.57006836.73049164.0380249.7679596.2277527-.42194367c.15216064-.30757141.21618652-.29492187.19067382.03844452l-.3423462.96019745c.10159303.4871521.16467286 1.43518066.19018556 2.84456634zm-6.17788697 1.8634491c.41842652-1.88388824 1.3746338-3.83590698 2.8701172-5.86044311-.25326539 1.0502243-.39288331 1.83181-.418396 2.34329986-1.11511231 1.94715119-1.97695923 3.88214111-2.58508301 5.80349732-.15167237.58886718-.27877808 1.29307556-.3803711 2.11262512-.07510376-1.04925537.0958252-2.51704407.51373291-4.39897919zm53.45358277-.557724c-.08908081.64142609-.29803467 1.19282532-.62738037 1.65320587-1.03997803 1.20304108-1.47042847 1.92136383-1.2937317 2.15155793.27877808.48666381.22824097 1.03757476-.15167236 1.6522293-.55755615.69301606-1.29229736 1.46048737-2.2046814 2.30485535.25323487.51392365.0635376.94900513-.57055663 1.30767822-.7352295.4092865-1.54653931.76747132-2.43292237 1.07649994 1.64712525-1.25559997 2.66064453-2.60074615 3.04101563-4.03543853.53155517-.48617554 1.00100708-.8068924 1.40640259-.9606781.35534668-.23068238.4184265-.33287812.19067382-.30757142-.45690918.17909241-.93887329.46086884-1.44540405.84484864.48147583-.97284699.82382202-2.02404786 1.02651978-3.15019226.98849487-.9743042 1.6100769-1.7422638 1.862854-2.30680085.35437012-.53727722.3673706-.65213012.0380249-.345047-.37988281.63996888-.96295166 1.31935883-1.74920654 2.03621674.35531616-1.1008377.67214966-2.33113098.95092773-3.6894226.12661744-.7932663.08859253-.93488312-.11410522-.42145539l-.37942505 1.34515381c-.1781311-.53728485-.38085937-.94900513-.60906982-1.23029327l.49447631 1.61378479c-.1020813.63996887-.34280395 1.54954528-.722229 2.7282486-.35531616-1.02394105-.82427978-1.94666291-1.40734863-2.76572419-.53155518-.66722107-.62063599-.67938232-.26626587-.03942108.58355713.84631348 1.06454468 1.96029663 1.44540405 3.34243011-.30477905 1.23029328-.65914917 2.25424195-1.06454468 3.07476044-.30477905-.46038818-.62112426-.78110504-.95141601-.96068573-.25326538-.12799072-.25326538-.05109405 0 .23068237.33029175.33287812.59558105.66527558.79830932 1.00009919-.303833.74168396-.7029724 1.3952713-1.19650268 1.95835113-.49447632.5630722-.98269653 1.03756714-1.46466065 1.42155457.60858155-.94705964.81130982-1.99777222.60858155-3.1501999 0-.20488738.15890503-.3718109.47521972-.49980163.31634522-.12799835.42468262-.26961517.32357788-.4229126-.27877807-.5630722-.41888427-1.01177978-.41793823-1.34466552.20269776-.10268403.50653076-.10268403.91192627 0 .33029175-.23067475.29803467-.55771637-.09436035-.97966004-.39337158-.42340088-.63989258-1.03221893-.7414856-1.82597351 0-.46038055.30429078-.62779999.91287232-.49980164.27877807-.02579498.303833-.35819244.07608032-.99815368l-.64663696-.88378906c-.45690918-1.02540589-.26623535-1.39575959.57055664-1.11446381l.98849487.61465454c.6586609.2555008.97549439-.1927185.95092774-1.3446579 0-.25598907.1954956-.31438446.58932495-.17422485.39193725.14161682.75354004-.15816498 1.08285522-.90228272.33029175-.35818481.58306885-.02579498.7602539 1.00009919-.07559203 1.35829162.25326539 1.99825286.98849488 1.92136383.12661743.07688903.14587402.43508148.05776978 1.07504272zM10.4553833 44.3893509l.83633423 1.07505036c-.17767334-.89595032-.25375366-1.76805878-.22821045-2.61242676l-.60812378 1.5373764zm42.76998901 7.6085434c-.1786499-.61611939-.01300048-1.20498658.49349976-1.7675705l1.25570679-1.15437317c-.27926636-1.04925537-.11508179-1.79336548.49353027-2.22844696-.20269775-.5124588-.19018555-1.1144638.0380249-1.80553436-1.03903198 2.25375366-1.69143676 3.6310196-1.95721435 4.12937164-.26675415.50028992-.4761963.71150208-.62786865.63461304-.15261841-.07640839-.21569825-.48618317-.19018555-1.22981262l-.41790772.73000335.0380249 1.3466034c-1.82528686 2.3822403-3.0159912 3.7132721-3.57403564 3.99651336-.30380249.12799073-.58355713.31925202-.83633423.57523346-.37988281.15330506-.48098755.06472779-.30380249-.26815033.20220948-.23068237.50650025-.44870758.91241455-.65359497.53155518-.3839798.93792725-.8978958 1.21621704-1.5373764.45645142-1.15145874 1.33081055-2.71463013 2.62310791-4.6875763.37988282-.69252776 1.33081055-1.98608398 2.85180665-3.8821411l.03756713-.9606781c-.4819641.51197051-1.06408691 1.1397705-1.74874878 1.88388824-.68466186.7421646-1.3298645 1.54224395-1.93893432 2.40072632-.60858154.85847473-1.1786499 1.78655242-1.71118164 2.7866516-.32931519.25598908-.6966858.15329743-1.10211182-.30708312l.11364746.9606781-.03805542.9217453c-.17669677.61417389-.46798706 1.13295746-.87387085 1.55635833-.40542602.4229126-.7862854.95387269-1.14065551 1.59529114-.2782898.76747895-1.29180909 1.61379242-3.04101563 2.53553772l-.45645142.3839798c-.0255127.61611938-.08859253 1.05120087-.19018554 1.30718231l1.25427246-.53727722 2.54751587-1.5763092.15164184-.96116639c.55804444.411232 1.05157471.51391602 1.4829712.30902863.3798828-.10366058.7409973-.41074371 1.08285522-.92272186.34280395-.5124588.8435669-1.1402588 1.50271606-1.8824234.6586609-.74411011 1.34283448-1.30718232 2.05303955-1.69116974zm-42.54226684-3.91960907l.22869873-.2301941 1.06408691 1.80504609-.1145935.23068237-1.17819214-1.80553436zm2.20516968 3.07330322l-.418396.53923035.64663696.884758.60809327.80543517c.25424194.35964203.55853271.6278.91290283.8068924l-.19018555-.5752411-.57055664-1.03757476-.98849487-1.42350006zm37.40966797 11.33738708c-.38082886.12750245-.93838501.15865326-1.67312623.0953827-.73522949-.06472016-1.92932128-.2491684-3.57693481-.55771637-1.69818115-.25598908-3.16381836-.53728486-4.39303589-.84436799-1.22827148-.3075714-2.63323974-.51197052-4.20526123-.61466217l-.57922363.07689667v.2301941c.96295166.9217453 1.26965332 1.72182464 1.43432617 2.4012146.16564941.67938232.23834229 1.1144638.20031738 1.3071823-.03805542.1927147-.27252197.57036973-.70394897 1.13296128l-.26623535.27009582.60906982.15330506c2.73721314.7947235 5.15713501 1.33248901 7.26074219 1.61378479 2.91534424.38398742 5.41183472.55090332 7.48944092.49980163 2.91488647-1.97245788 5.22213745-3.57504654 6.91937255-4.80339431l1.97790528-1.30718232c.50653076-.61369323.83633423-1.15340423.98800659-1.61379242-.68466187-.99864196-1.11654663-2.04935455-1.29421997-3.15019226-.10159302-.43702697-.1381836-.90471649-.11315918-1.40306091.02554321-.49980164-.49542236-.76211548-1.55999756-.78791046l-.91433716.03747558-2.05447387-.11437225c-.40637207-.10219574-.69091797-.29540253-.84259034-.5766983l-.08810424-.3839798.69863891.1912613v-.84436799l-.50894165.15329743c-.65914917.20488739-.87582397.43508148-.69863891.69107055.2783203.35964203.42996215.76941681.45550537 1.23029328q-.11410523 2.15203857-.2657776 3.03533935c1.14013673-.89546966 2.56002808-1.79336548 4.25820924-2.68932342-.15261841-.07640076-.4058838-.10219574-.7602539-.07640076-.30477906-.12751007-.32980348-.29492188-.07608033-.49980927.7857666 0 1.37561035.05791474 1.76751709.17227936.39385986.11582947.37460327.30173493-.05633545.557724-1.41989136.61416626-3.15563965 1.70284271-5.20864868 3.2660141-2.12911988 1.81916046-3.53601074 2.86987305-4.21972656 3.1516571zm-24.5979004-2.38417816l-1.63513183-1.15145874c-.65866089-.79521179-1.14013672-1.3699646-1.4444275-1.73058319-.30380248-.35818481-.59558105-.61466217-.87390136-.7679596-.40637207-.23019408-.73519897-.30709075-.98895264-.23019408-.17718505.0506134-.36688232.30708313-.57006835.7674713l-.07608033-.07640838c.10110474-.43556213.26000977-.70468902.47521973-.80737304.21520996-.10220337.48822021-.07640839.81756592.07688903l1.8243103.88378907 3.11761475 1.19087219c.76074218.82100677 1.22921753 1.38407898 1.40640258 1.69116974-.63314819.07737732-1.31781005.12799072-2.05255127.1537857zm12.12802124-1.03757476c.30383301-.35819245.69622803-.67744446 1.17819214-.96068573 2.1541443-1.07504273 3.58605957-1.70284272 4.29528809-1.88193512.12710571-.05110169.24169922-.0136261.34283447.11387634l.3038025.3859253-.41744996.26766967c-.25372314.20488739-.57104492.29541016-.95141601.27010345-.32980347-.02579498-.77227784.0837021-1.33032227.32557679-.55706787.24430847-.8623352.58351135-.91287231 1.01908111-.10159302.30708313-.24075318.49980927-.41793824.5766983-.55755615.30757142-1.06454467.57718659-1.5209961.80738068l-1.17819213-.07689667.60906982-.84679412zm3.04104615 1.27944946h.19018554l-.0211792-.1640091c.97210694-.411232 1.5272522-.85020446 1.65579224-1.15242767.17718506-.71832275.16467285-1.05947113-.0380249-1.08477783-.48196411-.05110169-.92541504.10414123-1.33129883.41172027-.42996216.2574463-.58258057.66040802-.45547485 1.09548188l.16900635.65067291c-.05731202.02384949-.11315918.04915619-.17382813.07495117l-.33752441-.63851166-1.33032227.6628418 1.25378418.17617798c.14587402-.0569458.28213501-.0705719.41357422-.1231308l.00531006.09101105zm-6.9121399-.44676209l-.84405517-.4092865.45645142.0389328.38760375.3703537zm0 0l.10736084.05110169-.03610229.0170288.26431274.25258637c1.29229737 1.40938568 2.0202942 2.37006378 2.1859436 2.8820343.16464234.5124588.18344117 1.01226807.05633546 1.49845124-.48101807.64191055-.82382202.87161636-1.02651978.69301223l-.19018555-.61660385-1.026062 1.30767441-.836792.53727722c-.37991333.33287048-.77279663.46038819-1.17819214.38348389l-1.33081055-.65164185.68417359-.34651184.18969726.15330506c-.12661743.38398742.02554322.33288574.4569397-.15330506l1.17819214-1.15339279c.0760498-.69106293-.08859253-1.58166504-.49401855-2.6703415-.40539551-1.08866881-.70968628-1.77292632-.91238404-2.0561676-.05056762-.23067474-.63363647-.28177642-1.74923706-.1537857.65914917-.33287811 1.43240357-.35818481 2.31930542-.07640839l.91238404.3839798.49642944-.21315765-.07077027-.06861878zm-14.9861145 1.43517304l.53204346-1.5373764 1.74874878 1.1533966-2.28079224.3839798zm26.80264283.23020172c-.65914917-.10220337-1.72369385-.29346466-3.19415284-.57670593l1.33129883-.46038056c.70968628.15329743 1.11462402 0 1.21572876-.46087646.1020813.53727722.31826782 1.03757477.64712525 1.49796295zm-22.69659424 9.5693245c1.34335327-.94851685 2.5470581-1.94667054 3.61160278-2.99787904.4053955-.33287048.418396-.62632751.03756714-.88232421-.60812378.05110168-1.25427246.23750305-1.93844605.55821228-.68469238.31924438-1.31829834.41853332-1.90090942.2905426l-.11410522.69689941c.05102539.30708313-.10159302.53485108-.45596314.66235352l-1.36883545.86286926.19018555.7280426h-.3423462l-1.140625-.49737549-.15167236.34895325.3803711.30708313c.3293457.12799072.65866089.35818482.98849487.69107056l.91238403.49980163c.5570984.28178406.9624939.23068238 1.21621704-.15330505.07608033-.30659485-.12661743-.6156311-.60809326-.92320251l-.83633423-.11387635-.19067382-.23068237 1.10308838-.53874207c.8112793-.40977478 1.52676391-.8380432 2.14788818-1.28723144.62109375-.44871521 1.1723938-.89060974 1.65386963-1.3256836l.34234619.0374756-.64663696.72999572c-1.44491578 1.10231018-2.56002808 1.89556885-3.34579468 2.3836975l.4564209.15330506zm20.11102295-.5207367c-.68469239 0-1.11465454.43945312-1.29278565.43945312h-.53204346c-.73522949-.97332763-1.31732177-1.19573974-1.7482605-1.6308136l-1.78677368-1.52716064c.3293457-.17860413 1.0385437-.06277466 2.1286316.24479675l3.23123169 2.47372437zm1.82479858.2905426l-.41744995-.07884216-.60809326.1557312-.91241455-.15524292c-.37988282.07884216-.69091797.16741943-.93167115.27009582-.24121093.10220337-.43719482.26913453-.58981323.4998169l.15261841.46038818.64569092.11581421c.58306885-.12799072 1.08956909-.38543701 1.5209961-.76940918l.98846435-.30708313.15167236-.19126892z"/>
      <path fill="rgb(255,255,255)" fill-rule="evenodd" d="M5.80136108 62.28213501c-.18249511-.16692352-.1873169-.25257874-.20077514-.51343536v-1.73642731c.44006347.24236297.87145996.21803284 1.2744751-.32801056.39962768-.62779999.0336914-1.04097748-.41503907-1.36509705-.09243774-.08029937-.27252197-.24723053-.44873047-.32217407-.26965332-.15865326-.45068359-.32266235-.71932983-.4832611l.008667.17422485c.01678466.01480865.03659057.02963257.05725097.04508972.09069824.0678711.19772339.14797973.13772583.29265594-.08135986.17520142-.32162476.53387451-.40444946.6278l-.8772583 1.35293578c-.0765381.17276764-.31823731.5343628-.48773194.62974549-.13800049.07762908-.22348022.03669738-.35089111-.02430726-.02593994-.01242828-.0536499-.02568817-.08389282-.03895568l-.07702637.09197998c.25952148.06861877.44104004.2355423.62689209.39419555.17333984.0822525.35437012.24576569.53155517.32266236l.08135987-.09052277c-.17669678-.07932281-.26721192-.16108704-.27636719-.3348236.07702637-.1776352.31393433-.5343628.39434814-.7134552l.40106202-.54409028c.18151855.16546631.18151855.16546631.19500732.4248581l-.01348877 1.38748931-.06259155.44189453c.09002685.0798111.26385498.070076.35726929.15037537.08810424.08711243.17861938.16887665.2739563.25063324l.07800292-.09197998zm-.59902954-2.69820404c-.02139282-.01543427-.04318237-.03115845-.06539917-.047081l.722229-1.07698821c.08569337-.00535584.08087159-.09344483.17044068-.09733582 0 0 .1762085.07884216.2652893.15719604.26721192.16205597.29034425.59372712.05007935.95191956-.46157837.60404968-.72677612.4125824-1.14263916.11228943zm53.44454956 2.3468399c-.08621215-.17228698-.26000976-.60736084-.26000976-.86676025l-.08377075-.08808136.94226074-.69301605.50842285.34845733c.08859253.08808136.2590332.17179108.34091186.2574463.0847168.17422485-.08187866.34990691-.16757202.43361663l.08569336.09052277c.16708374-.1737442.34091187-.26280213.5098877-.4365387.16659546-.17228699.34091186-.25598907.51278686-.34456634v-.17422486c-.171875.08905793-.34570312.17471314-.51278686.08905793-.0890503 0-.42800904-.2627945-.5098877-.34650422l-2.48010254-1.7383728-.08184814.09052277.68371582 2.25228882c.08184814.34602356.16851807.69252777.3374939 1.12615203 0 .26425934 0 .34942627-.16897583.52024079l.08377075.1756897c.08520508-.1756897.26000976-.26815033.3461914-.34650422.17092896-.0856552.33654786-.1756897.4246521-.26280212l-.08810424-.1737442c-.08184815.08712005-.25183106.26085663-.4227295.08712005zm-.85464477-2.68543243l1.27737427.86675262-.76605225.60881806-.51132202-1.47557068zM7.6767578 60.57247924c.07559204-.1790924.31585694-.54068755.39672852-.63169097.07272339-.26231384-.1040039-.341156-.28070069-.4175644l.16757203-.10268401 1.87872314 1.20644378-.48339844.71832276-.0890808-.0798111c.31921386-.5343628.13241576-.6998291-.31103516-1.02394867l-.27059937-.15865326c-.03286743-.03192901-.0531311-.05160522-.07489014-.05342865-.03497314-.00292969-.0737915.04021454-.17498779.15270996l-.71740723 1.1670227c.537323.4078293.7857666.13432313 1.02651978-.1435623l.08666992-.00535584c-.15359497.27448272-.31826782.4560089-.40011596.63315582-.1569519.27009582-.23449708.44189453-.39675904.62828827l-.0909729-.08565521c.31729126-.5343628.13626099-.69788361-.30670166-.93683625l-.47860718.8088379c-.02511596.0555954-.05871582.11244201-.09249878.1695938-.07177734.12143708-.14434814.24424744-.13812255.35941315.01394653.26280213.19403076.43362427.37313842.5032196.44586182.23895264.70681763.30902863 1.1131897-.1382141l.08666992-.00535584-.47427368.79911041-2.1473999-1.44929504.07702637-.09052277c.09631347.08029938.26867675.1620636.43817138.06327057.0784607-.09197998.32113648-.4526062.48483277-.62975311l.79830932-1.2570572zm46.44369507 1.11933137c-.25473022-.09051514-.42996216-.09051514-.59655762.08905792l-.0871582-.1790924c.17044067-.0837021.25375366-.0837021.34280396-.25598145.08618164 0 .25567627-.08516693.34091186-.17227936l3.32992554 1.12760162-.94033814-1.3057251c-.17044067-.16887664-.33895874-.51830291-.51278686-.68911743-.21078491-.14599609-.3093872-.10814666-.48519898-.04064178-.03341674.01282501-.0696106.02672577-.10992431.04064178l-.08712769-.08711242c.17044068-.08712006.33944702-.1756897.51516724-.26134491.08331299-.17520142.16708374-.2574463.34091186-.35137177l.08520508.0934372c-.02853393.0581665-.06698608.09685516-.10220337.1322937-.0699768.07041168-.12716675.1279602-.0682373.29986572.08569336.1737442.42468261.60736084.59945678.86286163l1.36209107 1.91308594-.08520508.08370972c-.17044067 0-.33944702-.08370972-.51135254-.1737442l-3.07519531-1.03756714 1.11029053 1.55781555c.09051513.17714691.34472656.43508148.51132202.60736084.17382812.08905792.34280395 0 .51278686-.09052277v.09052277c-.08618164.17714691-.25375366.26280212-.42468261.34650421-.171875.08516693-.255188.17228699-.43139649.34796906l-.0784912-.08711243.00180053-.00184631c.16921997-.17444611.25213623-.25991822.16864013-.5164566-.09194946-.17909241-.2609558-.43556214-.43139648-.61270905l-1.19406128-1.73010254zm-24.95529175 2.10730743c.02355957-.12979126.04711914-.25972748.04440308-.36162567l-.00482178-.17082214 1.09295654-.2048874.35775757.59081269c.00238037.08322144.0866394.25209808.08859253.33580017.06686402.17897797-.04153442.23357391-.13848877.28240967-.03988647.02008057-.07781982.03918457-.10083008.06555939l.00192261.08224487c.16900635-.003891.41842652-.09392548.67120362-.10073853.16659545-.09052276.41937255-.09733581.58691406-.10269165l-.00482178-.1674118-.00552368.0001297c-.16519165.0038681-.32958984.00771332-.41671753-.07458496-.09051514-.1640091-.2652893-.41805268-.3529358-.58351898l-1.33514403-2.59539032-.1675415.00341034-.36593629 2.2951126c-.07366943.34796906-.06500244.68571473-.13674927 1.11058045-.08041381.25939178-.16079711.34942627-.41021728.44042969l.0019226.08370971c.1699524-.00389862.33413697-.00827789.50219727-.09733581.16705323-.00341034.33798218-.00827027.50891114-.0136261l-.0043335-.17227936c-.03390503.0009613-.07095337.00540924-.10864258.00992584-.15292358.0183487-.31640625.03795624-.32180786-.1685791-.05245972-.09938812-.01739502-.2928543.01773071-.4866333zm-19.67926025.0628357c.04174805-.0786972.08010864-.15099335.103302-.20595551l.40490723-.54068756s.17959594.1654663.26724243.16011047c.44586182.3197403 1.1449585.45746613 1.54025268-.25744629.4015503-.63314819.0274353-1.13150024-.41360473-1.36509704-.17669678-.07884217-.35916138-.24430847-.53442383-.32071686-.1829834-.16205597-.44680786-.2355423-.62689209-.3995514l-.0828247.09197999c.17767333.07689667.35342407.15524292.28070068.41609955-.07992554.09733581-.32354737.45406341-.39770508.63169098l-.79058838 1.34272003c-.07702637.1810379-.32211304.5377655-.4862976.63703918-.06350709.13974762-.18670655.07060242-.32226563-.00549316-.0380249-.0213623-.07702637-.04325104-.11587525-.06118012l.00964356.17714692c.17669678.07738494.35629272.23749542.53250122.31049346.26916504.16741944.4506836.24430848.6288147.40442658l.08135986-.08712006c-.03567505-.03164673-.07086182-.06017303-.10379028-.08690643-.1373291-.11141968-.23614502-.19160461-.17401123-.33600616-.00634766-.11730958.10516357-.32757569.19955444-.50554657zM27.6375122 61.268898l.08569336-.0019455.20223999 1.09889222-.08908081.0019455c-.18634034-.59032441-.61871338-1.00009919-1.12088013-.90422059-.84405518.10755158-.90039063 1.12467957-.79492188 1.97099304.1954651.84436798.55175782 1.6843567 1.3934021 1.57680512.58740235-.18444824.74435425-.69641876.7265625-1.37532044l.08184815-.08905792.20220947 1.26776123-.17572021-.24965668c-.24557496.34650422-.5802002.4384842-.91723633.53289795-.92202759.19758606-1.7015686-.46087646-1.89944458-1.55781555-.1145935-1.10279083.37026977-2.05130768 1.29086304-2.1573944.42514038-.09684754.68081665-.01849366 1.02072143.1401596l-.0062561-.25404358zm2.65682983 1.65126038l-.71069336-1.3427124-.21954346 1.45026397.93023682-.10755157zm8.17843628-.20975495c0-.05335998.00772095-.12215423.0161438-.19706726.0192871-.17175293.0421753-.37566376-.0161438-.4993515 0-.17082214-.16900635-.25939178-.3356018-.25939178v-.17082215c.24893188.08370972.5099182.17082215.68035888.17082215.25613403 0 .5098877.08905792.76651001.08905792l-.0871582.08370971c-.09100342 0-.34185791 0-.42321778.17568207-.08953857.17227936-.08953857.51683808-.171875.69447327l-.17285156 1.6449356c-.08184814.17568207-.08184814.60541535-.08184814.69641877 0 .25744629.17044067.25744629.3374939.25744629v.1756897c-.25564576-.09197998-.42803956-.09197998-.68032838-.1756897-.2590332 0-.42611694 0-.68032837-.08905792v-.08516694c.1656189 0 .33319092 0 .42129517-.17422485.09194946-.08516693.171875-.52024841.171875-.68912506l.25567627-1.64833832zm-28.13342285.38544464c-.09197998-.08029937-.18008423-.07494354-.18441773-.1640091l.63555909-1.07309722c.08520507-.14565277.12472534-.21318817.17150879-.21866608.04040527-.00473022.08624267.0368576.17178344.11451722.35437012.23700714.46221924.58156585.14059448 1.03076171-.23883056.44676209-.58114624.55090332-.93502807.31049347zm13.74771118-.88378906c.0043335.1693573.09436035.50370026.09918213.67597962l.29708862 1.60843658c.00115967.05097198.01068115.11755371.02108765.19033813.02380371.1664734.05215454.36494446-.00375366.48368836.00668335.2556839-.15618897.2607956-.32537842.26610565l-.003479.00010681.0019226.0817566c.2527771-.00681306.50411988-.01313782.6711731-.10025025.24942016-.00681305.42468262-.01022339.67407226-.01703644l-.00479126-.17422485c-.16467285.00535583-.33703613.01070404-.4290161-.15670777-.08184815-.08175659-.17718507-.50321197-.18151856-.67062377l-.21426392-1.60941315c-.0866394-.17032623-.0953064-.50321198-.10012817-.68035889.07846069-.1654663.24746704-.25744629.33172607-.25939178l-.00241089-.08711243c-.16946411.00535584-.42080688.09879303-.67068481.10414887-.16998291.0053482-.42611695.01216125-.67697144.10755157l.08666992.07835388.00393677-.00006866c.08859253-.00151062.25146484-.00428772.42553711.15872192zm18.62130737.99669647l.08810425.08370972.16900635-.86967468-2.89996338-.52024842-.17236328.87016297.17236328.08516693c.08233643-.68717957.25183105-.68717957.76654053-.60736084.16705322 0 .42706299.09051514.33990478.17227936l-.33990478 2.6873703c-.08139038.4365387-.17285156.52170563-.6842041.52170563v.0856552c.25616455.08905793.5118103.08905793.77182006.08905793.25228882.08711243.51037598.17082214.76217652.17082214v-.08370971c-.4227295-.17617035-.4227295-.26182556-.4227295-.69836426l.4227295-2.68591309c0-.12459564.14205932-.11275482.3192749-.09797668.06292725.00524902.13034058.01086426.19735718.01086426.42562866.08662414.59799194.26425933.5098877.78645324zm-30.36032104-.08712005l.0109253-.05690766c.0625305-.32363128.11035155-.57118988-.14089967-.8035202l.0803833-.0934372c.17190552.08029938.3611145.2438202.53445435.32071686.18008423.07640076.35821533.24040985.62207031.31049347l-.08328247.08905793c-.08572388-.08029938-.34954834-.150383-.42852783.02384185-.07849121.18299103-.29034424 1.05801392-.36880493 1.32617188l-.26095581 1.48822784 1.07705688-.92175293c.16033936-.18249511.8180542-.83073425.89459229-1.00496673.13632202-.2308426.0276184-.31925965-.06338501-.39326477-.01602173-.01301575-.03146363-.025589-.0449524-.03840638l-.00915527-.1693573c.18057251.16059876.35437012.24089814.4482727.32119751.17959595.07835389.35195924.15476227.44537354.23846436l.0043335.08176422c-.28527832-.18925476-.54907227.0596466-.81292725.30862427-.06658935.06282043-.1331787.12565613-.20010376.18144989l-2.13922119 2.0289154-.17575073-.08176422.61050415-3.1555481zm8.90213013.33288574c-.00482178-.17082214-.10159302-.59033203-.1064148-.76261139-.09002685-.1654663-.33703613-.16011047-.42370605-.07299805l-.09051514-.1674118c.25326538-.00681305.50796509-.0116806.67599487-.09879303.25183106-.00730133.50939942-.0136261.67358399-.10609436l.08474731.1674118c-.1675415.00535584-.33413696.00875855-.41455078.17909241.0043335.16887665.1001587.58886719.10498047.7640686l.20944214 1.60405732c.10543823.67938232.27682495.84290313.8666687.7421646.16513061-.08905791.4227295-.09539031.58352661-.27301788.16741943-.1721344.16082764-.42443084.15408325-.682312l.16610718-.09100343.10690308 1.01908112c-.07992554.00145721-.16851807.00486755-.24795533.00681305-.76074218.10609436-1.60238647.29491425-2.35928344.40247345l-.0024109-.08711243c.04309083-.02177429.0860901-.03833008.1261902-.05375671.11676025-.04493714.2086792-.08032227.20507812-.20709992.05657959-.12091064.02511596-.3690567.0003357-.56438446-.0102234-.08046722-.01928712-.15190124-.02053834-.20162963l-.29226684-1.51693726zm31.46914672 2.56960297c-.0852356-.25404358-.16708374-.69107056-.16708374-.86334992l-.0890808-.17568207 1.02316284-.52024841.42562866.34991455c.16995239.0832138.25613403.2555008.3399353.34601593.08953857.17276764-.08380127.345047-.25567627.345047l.08618164.1737442c.16949463-.17423248.42947388-.25939941.59848023-.34651184.17141723-.17276764.42660522-.2627945.59848022-.34796143l-.08520508-.0876007c-.02462768 0-.0560913.00698852-.09234619.01504516-.09210205.02046967-.2151184.04780579-.33569336-.01504516-.16900635-.08322144-.42468262-.34455872-.51422119-.433136l-2.21481323-1.99143981h-.17382813l.427063 2.34135437c.08764648.34601593.17285155.77622986.17285155 1.1246872.08908081.3465042 0 .4365387-.17285156.60541534l.08813477.08564758c.08520507-.08516693.25613403-.17033386.42803955-.25403595.17089843-.09052276.24938965-.1756897.42272949-.26621246l-.08666992-.08564758c-.0871582.08564758-.33605957.17568206-.42321778 0zm-9.59399414-.9572754c-.08520507.17227936-.2546997.6039505-.33944702.78012085 0 .2555008.25424195.2555008.33944702.34651185v.08516693c-.171875 0-.33944702-.08516693-.50891113-.08516693-.17477417 0-.34570312-.09101105-.51229858-.09101105l.08184814-.0798111c.25567627 0 .33752442-.09100342.51470947-.35186004.1699524-.34650422.33944703-.69106293.51229859-1.03952027l1.02313232-2.07855224.16900635.08224487.51135254 2.95017242c.09051514.17227936.09051514.5168457.17285156.69301606.0827942.1790924.16946411.1790924.33798218.26085662v.08760071c-.16900635 0-.4203186-.0876007-.68032837-.0876007-.17333984-.08176423-.42611694-.08176423-.68179321-.08176423l.0852356-.1790924c.01873779 0 .04547118.00424957.0758667.00907897.10861205.01727295.26358031.04190827.26358031-.0942459v-.52219391l-.0852356-.6039505-1.19213866-.1756897-.0871582.1756897zm-24.75924682-1.79677581c.09005737.0856552.18392944.50370025.18875122.67597961l.20944214 1.61087036c.00384521.1659546.0958252.50710297.10015869.67597962.00665283.2512207-.23672486.26111602-.32269287.26461029l-.0032959.00013733.0043335.1654663c.24749755-.09052276.49737548-.1790924.75640869-.18590545.16564941-.00535584.42034912-.01216889.50076294-.10073853.25421142-.00681305.59173584-.01557922.83969116-.27789306.16323852-.17617035.32595825-.43361664.31488037-.86042023-.0909729-.24917603-.26913452-.49835205-.52191162-.6589508-.17623902-.16546631-.42947388-.15914155-.68417359-.15184022.33172608-.18444824.66827393-.44384002.56765747-.95046234-.10256958-.6779251-.6947937-.75092315-1.19744873-.64871978-.17428588.0053482-.34088134.09538269-.5031433.09927368-.25808716.00681305-.42514039.01216888-.67889405.10560608l.0019226.0822525.0032959-.0000763c.17074586-.00387573.33624268-.00762939.42425538.15483094zm.79544067 1.17238617l.08425903-.00195313c.16320801-.0968399.33029175-.10219574.41549683-.18785095.16223145-.17367554.15600586-.42613983.14974976-.67938232-.0958252-.4209671-.27011109-.5849762-.60281372-.5752411-.08233643.08565522-.2571106.08905793-.2571106.08905793s.00482178.1674118.00674438.25404358l.20367432 1.10132599zm27.62210083-1.04634095c0 .17082215-.09051514.60249329-.09051514.77818299l-.24987793 1.5607376c-.08764648.17617036-.17285156.60930634-.17285156.69301606-.1723938.17227936-.34283447.17227936-.50845337.17227936v.08711242c.84884644.17617035 1.6168213.26133728 2.47192383.43508149 0 0 .17428589 0 .17428589.08564758l.25424194-1.04097748h-.17285156c-.08139038.34455872-.08139038.5207367-.42996216.69641876-.1100769.0554657-.25546264.03868866-.41531372.02023316-.08557129-.00987244-.17532348-.02023316-.2659912-.02023316-.51132203-.08905792-.59463502-.2627945-.51132203-.95240783l.2546997-1.65320588c.08859254-.16886901.08859254-.60540771.17379761-.77671813.06570435-.13515473.24298096-.1094513.35598755-.09306336.02938843.00426483.05444336.00789642.072052.00789642l.08233643-.17373657c-.2546997 0-.51037598 0-.76748657-.09101105-.17138672 0-.42755127-.0798111-.59509278-.0798111l-.08813476.0798111c.1699829 0 .3380127.09101105.42852783.26474762zm-31.07336426 1.04633332c-.00482177-.16546631-.10015869-.5903244-.10449218-.756279-.0871582-.16693115-.2590332-.1635208-.42370606-.07105255l-.0043335-.17082214c.16708375-.00535583.42129517-.01216888.5864563-.10463715.25756836-.00681304.4246521-.01021575.58981324-.0968399.41790771-.09539032 1.09823608-.02920532 1.2041626.730484.09725952.51002503-.15164185.76747132-.48147584.94169618.25424195-.00681305.5055542-.01313782.67504883.07348632.26046753.15865326.43478394.41123963.44345093.7489853.09100342.34114837-.06454468.59762573-.31536865.85847473-.16467285.1737442-.49786377.26621246-.7520752.2730255-.25808716.00730134-.4251709.01168061-.5883789.10268403-.3423462.00875854-.50506592.10220337-.84451294.11096191l-.0024109-.08857727c.1656189-.09100342.33752442-.09587097.418396-.26669311-.0043335-.16546631-.10061645-.5883789-.10543823-.7577362l-.2951355-1.52716065zm37.6065979-.15037537l-1.1107788-1.03757477.2571106 1.47605896.8536682-.43848419zm-9.25073242-.96019745l.25567627 1.5592804-.94033813-.17033386.68466186-1.38894654zm5.98577881 1.17384339c0-.17082215-.08520508-.60249329-.08520508-.69301606-.06488037-.2067337-.18902588-.19306945-.32138061-.17850494-.03466797.0038147-.06988526.00769043-.10473633.00769043v-.17714691h.68081665c.16900635 0 .42755127-.08565521.68466186-.08565521v.17227935c-.16900634 0-.34713745 0-.42611694.17714692v.77671813l.16900635 1.56317902c0 .17373657 0 .60346222.08859253.7796402.0852356.17227936.25567627.17227936.42272949.17227936v.08516693h-.67984009c-.25854492.08564758-.42852783.08564758-.68371582.08564758v-.08564758c.08859253 0 .3442688 0 .3442688-.2574463.05636597-.12243651.03417969-.32687377.01553345-.49852752-.00808716-.07466888-.01553345-.14313507-.01553345-.19594574l-.08908081-1.64785766zm-33.73449707.43021392l.16659546-.08370971c.16564941-.0053482.33270264-.00875855.41696167-.17909241.1645813-.17403412.15985107-.34954071.15310669-.59908295-.0953064-.42486572-.27539063-.67208862-.69332886-.57816314 0 0-.16705322.00535583-.25228882.09392547l.0043335.16887665.20462036 1.1772461zm3.13638306 1.11057282c-.08908081-.16741943-.0958252-.42486572-.18151856-.59227753l-.10449219-.7596817.1656189-.00535583c.05471802-.00154114.10870361-.01117707.16494751-.02121735.12094116-.02158356.25234985-.04502869.42391968.0061264.17285156.16060639.34906006.3294754.35821533.66916657.0958252.42340088-.06356811.76455688-.40106201.8618927-.16659546.0053482-.3336792.00875854-.42562866-.15865326zm-2.7598877.50028992c-.08425903-.17082215-.17910766-.51051331-.18344116-.67792511l-.10592651-.67890168.08761596-.00145721c.25231934-.08906555.5036316-.09539032.67263794-.01898193.25424195.08029937.34667969.3328781.43960571.58545684.0977478.50856781-.06356811.85020447-.48342895.86188507-.16656494.08857728-.33364868.09393311-.42706299-.07007598z"/>
      <g>
        <path fill="rgb(255,255,255)" fill-rule="evenodd" d="M13.4352417 47.70695496c-.12228394-.16400147-.29849243-.40830994-.49014282-.67597962l-.2802124.36306c.22869873.31730652.42706298.5903244.52819824.72172546l.10592651.14015961 2.04196167-.93878174c.58258057.65164948 1.23016357 1.3003769 1.97262573 1.9763565l-.9263916 2.07660676.13000488.10755157c.36929322.30562592 1.92785645 1.44199372 2.33520508 1.71160889l.14202881.09392548 1.6505127-1.5320282c.80456543.47547912 1.64041137.9042282 2.48831176 1.27262878l-.2527771 2.26446533.16079712.05937195c.46511841.17373657 2.29714966.77282715 2.75167847.90422821l.16610718.04817963 1.096344-1.97781372c.95285033.20683288 1.87487792.35186005 2.74490356.43215942l.4545288 2.22990418.171875.00730896c.27206421.00827026.92684937.01167297 1.4487915.01167297.5228882 0 1.17385865-.00291443 1.43673707-.01167297l.17333984-.00730896.43814087-2.21676636c.98944092-.10365295 1.89175415-.2491684 2.74493408-.44334412l1.11270142 1.97634888.16513062-.04817963c.47860717-.1382141 2.31643676-.7348709 2.75457763-.9042282l.15792847-.06132508-.25231934-2.2488861c.86282349-.3859253 1.6933899-.81954194 2.47338868-1.28674317l1.66351318 1.52910614.1401062-.08905792c.40975952-.25988007 1.9606018-1.41619873 2.33517456-1.71014405l.13723755-.1075592-.94418335-2.06297302c.7496643-.6667328 1.3977356-1.32032776 1.97454834-1.99290467l2.05111694.93489075.1064148-.1314087c.30236816-.3737564 1.42663574-1.94860839 1.69238281-2.35984038l.09295654-.14356232-1.51571655-1.6687851c.46606445-.80251312.88833618-1.6415329 1.25906372-2.50000763l2.24179077.23846436.05825806-.16205597c.15600586-.4248581.77374268-2.2863617.88110351-2.77594757l.03515625-.15865326-1.93121337-1.12030792c.20895385-.98306275.34906005-1.89459229.4265747-2.77642822l2.20135498-.45796204.01153565-.16692352c.03323364-.4793625.03323364-2.45279694 0-2.93265534l-.01153565-.16789245-2.20135498-.44140625c-.08859253-.9845276-.23544311-1.91649628-.43911743-2.77643586l1.94857788-1.12030792-.04092407-.16303253c-.12231445-.49201965-.71212769-2.34719086-.88113403-2.79055023l-.06066895-.16059876-2.23693848.27156067c-.35198974-.84485626-.7756958-1.68922424-1.26052856-2.51460266l1.51330566-1.6648941-.08813476-.14307404c-.26239014-.42388916-1.40109253-2.0172348-1.71502686-2.38515472l-.1083374-.1270218-2.0159607.95046235c-.61483764-.7037201-1.26196288-1.35829163-1.97167968-1.9919281l.92590332-2.05860138-.13049316-.10755158c-.36541748-.30221939-1.92831421-1.47119522-2.35827637-1.73204803l-.14108276-.0856514-1.62884522 1.5281334c-.80551147-.47742081-1.6399231-.90520096-2.48782349-1.27312089l.25134278-2.23963928-.15023804-.0642395c-.43621826-.18639374-2.28366089-.78791428-2.76849365-.91006851l-.1618042-.0408783-1.09246826 1.97002411c-.93502808-.21705246-1.83685303-.36305237-2.74588013-.44481277l-.45309448-2.20800782-.1656189-.01167678c-.26577759-.01898194-.9239502-.02579499-1.45117187-.02579499-.34524536 0-.74728394.00291825-1.05783081.01021958h-.16802979s-.0043335 0-.01541138.00048828v-.00048828l-.03900146.00292205-.00723267.00048447-.14346313.01021957v.00048829h-.00531006l-.00527954.00048446h-.00387573l-.00479126.00048828h-.00048828l-.16610718.0116806-.43670655 2.20800782c-.9750061.08905792-1.89752197.23846435-2.74829101.44384003l-1.12524414-1.97002793-.1612854.04233933c-.46029663.12020492-2.289917.71977997-2.7468567.9081192l-.15405273.06326675.25228882 2.24110031c-.83538818.36207963-1.66592407.78937531-2.47338867 1.27360535l-1.66592407-1.53153992-.14154053.09344101c-.14782715.09782029-.4588623.32022858-.80984497.57670212l-.0703125.59811402c.37652588-.27740097.7496643-.54847718.97982788-.70907593l1.65533447 1.52132034.13961792-.08516693c.8815918-.53825378 1.79257203-1.00691223 2.70736695-1.3933258l.15118408-.0642395-.2508545-2.23379899c.54647828-.20440292 1.82434083-.623909 2.37756348-.7854805l1.12234497 1.9641838.16030884-.04039c.9182129-.2321434 1.92883301-.39517594 3.00350952-.48618317l.1636963-.0136261.4352417-2.19973373c.27059936-.01021958.73187255-.01654435 1.25378417-.01654435.52288819 0 .98464966.00632477 1.2552185.01654435l.45309449 2.20119476.16271973.01314163c.99523925.0817566 1.9774475.24040985 3.00494384.4871521l.1612854.03844452 1.08813477-1.96321106c.56671143.1615715 1.85565186.58107758 2.3920288.78450775l-.25085448 2.23477173.1506958.0642395c.92926025.3956604 1.84695434.86480713 2.72567749 1.39429856l.14059448.08468246 1.62402344-1.52326584c.4887085.32557678 1.58117676 1.14025879 2.03762817 1.50039292l-.92010498 2.04545593.1232605.10852813c.78527832.6920395 1.4911499 1.40647126 2.16088867 2.18367768l.1083374.12604523 2.0097046-.94802857c.36062621.45746613 1.15457153 1.56852722 1.48052978 2.06152344l-1.50701904 1.65807342.0847473.1421051c.53924561.90179444 1.00289918 1.82791901 1.37799073 2.75209809l.06356812.1557312 2.22491455-.2705841c.19113159.54457855.6052246 1.84884643.76409912 2.41678619l-1.94421387 1.11787414.03997803.16254425c.22964477.92904664.39141846 1.95056153.48098755 3.03582764l.01348877.1659546 2.19363403.4404373c.02212525.58302308.02212525 1.9524994-.00048828 2.53504182l-2.19314575.45648956-.01348877.1654663c-.0765686.95970918-.22869873 1.95446015-.46511841 3.04118348l-.03515625.15865326 1.92593384 1.11592865c-.1487732.54993439-.57055664 1.83813476-.76797486 2.4031601l-2.2215271-.23700715-.06454467.15037537c-.40008545.9436493-.86425782 1.86491394-1.37893677 2.73847961l-.08380127.14161682 1.5041504 1.65661622c-.3269043.48130798-1.11654664 1.58702087-1.46707154 2.04594421l-2.0414734-.9300232-.10690307.12654114c-.61917114.73680878-1.32598877 1.45026398-2.15893554 2.1822052l-.1232605.1095047.9345398 2.0425415c-.46124268.35137177-1.5484314 1.16020966-2.02172852 1.48433686l-1.65679932-1.52181244-.13912964.08516693c-.84838867.51878357-1.7607727.99328614-2.71026611 1.4108429l-.1487732.0666809.2508545 2.22843934c-.54360962.19467163-1.82675171.61271667-2.39489746.78499603l-1.1026001-1.95883179-.1593628.03746796c-.92782592.21852112-1.91195678.3786316-3.00924682.48812866l-.16131592.01509094-.43380737 2.19291687c-.27252197.00535584-.730896.00875855-1.24847412.00875855-.52096558 0-.98464966-.00340271-1.2619629-.00875855l-.45162963-2.21336364-.16323853-.01313782c-.94610595-.07688904-1.95864868-.23603058-3.00875854-.46963501l-.15890503-.03552246-1.08477783 1.9568863c-.55706787-.17033387-1.83685303-.59032441-2.39343262-.78645326l.2508545-2.24547577-.15118409-.06472778c-.9307251-.39614868-1.84744263-.8652954-2.7256775-1.39430237l-.1401062-.08516693-1.6375122 1.5203476c-.47668457-.3294754-1.57156372-1.12809754-2.02560425-1.4814148l.91867066-2.06103515-.11990357-.10755158c-.82717895-.74556732-1.53494262-1.45561981-2.16375732-2.17053223l-.10739136-.12117767-2.01837158.92660523zm-4.96166992-8.9415207c.08041382.2725296.34136963 1.10181428.56814575 1.79823304l.30142212-.48958588c-.15408325-.47742462-.30862427-.968956-.40011597-1.26922607l1.93460083-1.11154938-.03323364-.15865326c-.237854-1.1261444-.38998413-2.12138367-.46606445-3.04264069l-.01348877-.16448974-2.18930054-.45600891c-.01107788-.58740998-.01107788-1.9510498 0-2.53845215l2.18930054-.45600891.01300048-.16497803c.07702637-.96165466.22918702-1.95591736.4656067-3.04118347l.03512573-.16011048-.84066773-.47644805-.74243164.08711242 1.08621216.6156311c-.20751953.98112488-.34762573 1.89216614-.42562866 2.77400208l-2.20709229.4598999-.00579834.1737442c-.0168457.47692872-.0168457 2.4401474 0 2.91658783l.00579834.17423249 2.20758057.4598999c.07751465.8492279.21762085 1.76026916.42660522 2.774971l-1.95916748 1.12614442.04959107.16887665z"/>
        <path fill="rgb(255,255,255)" fill-rule="evenodd" d="M28.22491455 27.52829742l-11.92581177-3.55704498.171875-.30173492c2.5682373-4.50847626 6.92370606-7.66645813 11.9489441-8.66558075l.33798217-.06764984-.5329895 12.5920105zm7.3031311.01265717l-.35437011-12.57352066.33654785.07153702c5.04592895 1.07261657 9.36917114 4.2880249 11.86322021 8.82083893l.16708374.30416107-12.01248169 3.37698364zm-7.81588745-.73779297l-10.5954895-3.15992737c2.45025635-4.11038208 6.45281983-7.01383972 11.06924439-8.0295105l-.47375489 11.18943787zm8.33926392.02093506l-.31585693-11.17289734c4.63424682 1.08332062 8.60888671 4.0383606 10.99172973 8.17162323l-10.6758728 3.00127411zM18.93377686 44.91300964l-.23062134-.25939178c-3.44067383-3.86462402-5.06759644-9.03253174-4.465271-14.17855072l.04046631-.34650421 11.69372559 4.40092468-7.03829956 10.38352203zm25.73327636.15232087l-6.89578247-10.50810242 11.71203613-4.22086334.03659058.34553527c.55563355 5.16061402-1.12762451 10.31002808-4.61883545 14.12744141l-.23400879.25598908zM18.8779297 44.02435303c-3.1036377-3.62810517-4.60006714-8.37845612-4.13833618-13.13659668l10.39135742 3.91085052-6.25302124 9.22574616zm25.85794067.15135193l-6.12780762-9.3371811 10.40722657-3.75122833c.41888427 4.77030945-1.12954712 9.50362396-4.27941895 13.08840943zm-20.32138061 4.73381042c2.34286499 1.09013367 4.84176635 1.64298248 7.42922973 1.64298248 2.49987793 0 5.02282715-.54409027 7.29638672-1.57534027l.31393433-.14161682-7.58865357-9.9513626-7.76531982 9.87835693.3144226.14698028zm7.42877197 1.09402466c-2.39248657 0-4.70648193-.48617554-6.88613892-1.44880676l6.90203858-8.77946473 6.74267578 8.8407898c-2.12142945.9100647-4.44985962 1.38748169-6.75857544 1.38748169z"/>
        <path fill="rgb(255,255,255)" fill-rule="evenodd" d="M31.61889648 15.42003632l-3.93515014 11.35003662-11.90847779.29151153-.73233032.018013.5821228.4482193 9.46591187 7.2868576-3.40985107 11.5573578-.20895386.70810699.60183716-.41950989 9.78805542-6.84301758 9.8048706 6.84301758.60281372.41950989-.21038818-.708107-3.40939331-11.52280425 9.46594238-7.32189942.58065796-.44919586-.73184204-.0170288-11.89068604-.27399446-3.96932983-11.3685379-.24362183-.69690323-.2421875.69836808zm-3.50808715 11.69070434l3.75170898-10.82200622 3.78588867 10.8400116.05874634.16887664.17910767.00437927 11.33599853.26133728-9.02490234 6.9812317-.14202881.10999297.05056763.1713028 3.25048828 10.98601532-9.34796143-6.52327728-.1468811-.10220337-.14538574.10220337-9.33209229 6.52376556 3.25146484-11.02105713.05053711-.17227936-.14154052-.10852813-9.02441407-6.94813538 11.3538208-.27740478.17767334-.00437928.0592041-.16984558z"/>
        <g>
          <path fill="rgb(255,255,255)" fill-rule="evenodd" d="M10.9094074 50.88051333l.00192593.00340667-.00192592-.00340667z"/>
          <path fill="rgb(255,255,255)" fill-rule="evenodd" d="M9.88433333 48.76935333l1.02507408 2.11116-1.02507408-2.11116z"/>
        </g>
      </g>
    </g>
  </g>
</svg>
